<?xml version="1.0" standalone="no"?>
<!DOCTYPE svg PUBLIC "-//W3C//DTD SVG 20010904//EN"
 "http://www.w3.org/TR/2001/REC-SVG-20010904/DTD/svg10.dtd">
<svg version="1.0" xmlns="http://www.w3.org/2000/svg"
 width="300.000000pt" height="300.000000pt" viewBox="0 0 300.000000 300.000000"
 preserveAspectRatio="xMidYMid meet">
<metadata>
Created by potrace 1.10, written by Peter Selinger 2001-2011
</metadata>
<g transform="translate(0.000000,300.000000) scale(0.100000,-0.100000)"
fill="#000000" stroke="none">
<path d="M752 2594 c-12 -8 -22 -23 -22 -32 1 -16 1 -16 11 1 12 20 39 23 39
5 0 -10 3 -9 9 1 5 8 14 10 21 6 12 -8 10 -83 -5 -190 -3 -22 -14 -114 -25
-205 -26 -207 -29 -223 -41 -230 -5 -4 -1 -14 10 -24 18 -17 19 -16 26 46 4
35 22 182 40 328 29 234 31 268 19 288 -17 26 -50 29 -82 6z"/>
<path d="M1596 2591 c-10 -11 -16 -26 -13 -33 4 -8 6 -7 6 5 2 30 39 21 44
-10 l4 -28 2 28 c0 18 6 27 14 24 18 -6 13 -98 -17 -342 -35 -279 -35 -283
-51 -287 -9 -2 -6 -8 9 -19 l22 -17 39 317 c21 174 38 325 37 336 -3 43 -66
60 -96 26z"/>
<path d="M2458 2599 c-10 -5 -22 -26 -28 -47 -14 -52 -11 -66 4 -17 12 37 16
40 51 42 l38 2 -6 -92 c-4 -51 -8 -103 -11 -117 -3 -14 -14 -108 -26 -210 -12
-102 -26 -193 -31 -204 -8 -14 -7 -22 4 -33 18 -18 13 -44 63 355 34 279 35
295 18 313 -19 21 -49 24 -76 8z"/>
<path d="M1531 2354 c-7 -30 -11 -57 -8 -60 2 -2 9 21 16 52 7 30 11 57 8 60
-2 2 -9 -21 -16 -52z"/>
<path d="M2382 2340 c-7 -29 -11 -55 -9 -57 7 -6 30 84 25 98 -2 6 -9 -12 -16
-41z"/>
<path d="M631 2129 c-7 -34 -10 -63 -8 -65 2 -3 10 23 17 56 7 33 11 63 8 65
-2 2 -10 -23 -17 -56z"/>
<path d="M1481 2134 c-6 -32 -9 -59 -7 -61 2 -3 10 21 16 52 6 31 10 59 7 61
-2 2 -9 -21 -16 -52z"/>
<path d="M1547 2008 c-3 -24 -2 -47 4 -52 5 -6 9 9 9 42 0 63 -5 67 -13 10z"/>
<path d="M699 2005 c-4 -22 -3 -44 2 -49 13 -15 15 -5 9 44 l-6 45 -5 -40z"/>
<path d="M1413 1918 c-11 -13 -40 -52 -65 -88 -26 -36 -65 -83 -87 -105 -51
-48 -55 -84 -12 -114 15 -11 31 -18 35 -14 3 3 6 -5 6 -18 0 -18 6 -25 21 -26
11 -1 31 -13 44 -27 17 -19 34 -26 60 -26 21 0 35 -5 35 -12 0 -10 2 -10 9 0
12 19 79 33 127 26 50 -7 74 4 132 59 48 47 55 84 20 119 -13 13 -17 23 -10
26 29 9 -32 62 -73 62 -17 0 -65 51 -77 82 -4 10 -18 22 -30 27 -13 5 -31 19
-40 30 -24 28 -69 27 -95 -1z m111 -64 c21 -25 41 -43 44 -39 3 3 -7 17 -23
30 -22 18 -26 24 -13 25 18 0 48 -36 48 -58 0 -19 29 -46 54 -49 32 -5 50 -13
43 -19 -3 -4 2 -14 12 -23 10 -9 24 -30 31 -48 32 -82 -68 -149 -162 -108 -11
4 -18 3 -18 -3 0 -6 8 -12 18 -15 9 -2 -25 -3 -75 -3 -61 0 -93 4 -93 11 0 12
-45 55 -58 55 -12 1 -62 48 -62 59 0 5 5 22 10 36 8 22 13 25 24 16 9 -8 17
-8 20 -2 3 5 0 12 -6 14 -8 4 -7 6 4 6 9 1 30 25 48 56 17 30 36 57 41 60 5 4
6 12 3 18 -4 7 -4 9 0 5 4 -3 19 0 34 8 15 8 29 14 32 14 3 0 23 -21 44 -46z"/>
<path d="M511 1848 c-27 -40 -70 -93 -95 -118 -31 -30 -46 -52 -46 -70 1 -29
17 -53 43 -63 22 -8 22 4 -1 29 -25 27 -7 94 21 77 5 -3 7 -2 4 3 -3 6 15 30
40 54 24 25 52 57 61 73 9 15 20 27 25 27 4 0 5 6 2 13 -4 6 5 0 19 -15 30
-33 36 -34 36 -9 0 20 -36 71 -50 71 -5 0 -32 -33 -59 -72z"/>
<path d="M660 1900 c-12 -8 -9 -10 13 -10 33 0 70 -17 63 -29 -6 -9 102 -56
110 -48 5 5 -148 97 -162 97 -5 0 -16 -5 -24 -10z"/>
<path d="M2406 1891 c23 -11 43 -23 45 -27 2 -5 24 -20 48 -33 24 -13 41 -19
37 -13 -10 17 -139 92 -157 92 -8 0 5 -9 27 -19z"/>
<path d="M2286 1846 c-13 -30 -27 -42 -88 -70 -79 -36 -113 -66 -123 -108 -7
-29 22 -68 50 -68 8 0 15 -4 15 -9 0 -13 29 -41 42 -41 6 0 5 7 -3 17 -12 14
-12 16 1 11 8 -2 15 -13 15 -22 0 -10 11 -27 25 -38 20 -16 33 -19 80 -13 30
3 87 6 127 6 66 0 76 2 115 32 23 18 51 47 61 65 17 29 18 36 6 65 -24 58 -96
125 -152 142 -28 8 -60 24 -71 34 -12 10 -35 22 -53 26 -30 6 -33 4 -47 -29z
m82 -12 c17 -8 41 -27 52 -41 11 -14 20 -21 20 -15 0 19 52 -6 91 -45 60 -58
62 -156 3 -145 -14 2 -24 0 -24 -7 0 -6 5 -11 12 -11 6 0 8 -3 4 -7 -4 -5 -44
-9 -89 -9 -45 -1 -107 -5 -139 -9 -50 -7 -56 -5 -55 11 1 10 -12 27 -33 40
-53 34 -103 88 -85 92 8 2 15 9 15 17 0 13 50 23 83 17 13 -3 17 -10 14 -23
-3 -10 -1 -17 4 -13 19 11 8 34 -23 48 -25 11 -28 15 -13 15 12 1 38 10 58 20
23 12 37 15 36 8 -5 -39 5 -44 12 -7 5 25 6 53 3 62 -7 23 12 23 54 2z"/>
<path d="M1643 1835 c15 -14 35 -25 43 -25 23 0 17 7 -28 29 l-43 22 28 -26z"/>
<path d="M638 1828 c2 -9 9 -16 15 -15 7 1 19 -13 27 -30 8 -18 20 -33 25 -33
6 0 16 -5 23 -12 6 -6 22 -13 34 -15 20 -3 18 0 -9 17 -17 12 -38 38 -47 59
-12 30 -21 39 -44 43 -24 3 -28 1 -24 -14z"/>
<path d="M730 1812 c0 -17 60 -72 79 -72 11 0 32 -5 46 -12 14 -6 28 -8 33 -4
11 12 -35 45 -73 52 -19 3 -41 15 -51 25 -18 20 -34 25 -34 11z"/>
<path d="M2587 1779 c13 -14 32 -43 43 -65 12 -22 18 -28 14 -14 -8 30 -36 71
-61 91 -11 8 -9 3 4 -12z"/>
<path d="M860 1695 c0 -8 4 -15 9 -15 5 0 11 -10 14 -22 8 -28 -24 -81 -58
-96 -34 -15 -48 -15 -39 1 6 9 4 9 -7 1 -8 -6 -43 -12 -79 -14 -124 -4 -135
-5 -142 -15 -8 -11 -100 34 -92 46 2 4 0 10 -5 14 -11 6 -33 -29 -24 -39 3 -3
17 -6 30 -6 13 0 23 -5 23 -11 0 -20 34 -38 72 -39 20 0 38 -4 40 -9 2 -5 23
-2 47 6 36 12 45 12 52 1 7 -11 9 -11 9 1 0 8 7 11 20 8 36 -9 86 12 132 57
49 47 59 70 47 103 -10 28 -49 51 -49 28z m-111 -160 c-3 -2 -41 -6 -84 -9
-51 -3 -73 -2 -60 4 20 9 152 14 144 5z"/>
<path d="M2661 1644 c0 -11 -14 -41 -30 -67 -32 -49 -117 -107 -158 -107 -14
0 -23 -6 -23 -15 0 -17 -16 -20 -25 -5 -3 6 -11 10 -16 10 -6 0 -7 -4 -4 -10
4 -6 -19 -10 -62 -10 -79 0 -115 8 -106 23 3 5 1 7 -4 4 -13 -8 -124 46 -146
71 -8 9 -23 31 -31 47 -9 17 -16 23 -16 14 0 -23 55 -106 84 -124 56 -37 128
-56 215 -57 112 -2 184 19 243 71 47 42 93 128 85 159 -4 13 -5 12 -6 -4z"/>
<path d="M951 1617 c-1 -9 -20 -38 -43 -63 -50 -54 -97 -82 -145 -86 -7 -1
-10 -5 -7 -10 3 -4 -5 -8 -18 -8 -13 0 -55 -3 -93 -6 -56 -5 -79 -2 -110 12
-22 9 -42 18 -45 19 -45 12 -113 65 -139 110 -11 18 -11 18 -5 -5 19 -75 120
-146 226 -158 145 -17 272 18 333 90 32 38 58 95 51 111 -2 7 -5 4 -5 -6z"/>
<path d="M1801 1619 c-2 -28 -81 -109 -132 -135 -27 -13 -49 -21 -49 -18 0 4
-7 1 -15 -6 -8 -7 -55 -15 -104 -18 -87 -5 -90 -4 -162 33 -84 42 -104 58
-130 100 -11 17 -19 24 -19 17 0 -25 30 -71 70 -105 112 -96 353 -95 470 2 38
31 85 113 77 134 -4 7 -6 6 -6 -4z"/>
<path d="M2284 1286 c-6 -26 1 -46 17 -46 5 0 8 12 7 26 -4 37 19 42 33 7 8
-19 8 -60 3 -128 -13 -158 -9 -231 20 -328 29 -98 28 -111 -16 -297 -25 -107
-25 -104 -13 -110 6 -3 20 42 33 105 13 61 26 124 31 140 l8 30 12 -40 c7 -22
15 -88 18 -148 3 -59 10 -110 14 -113 15 -9 10 146 -7 240 -15 81 -15 92 -1
120 25 52 26 62 11 128 -10 41 -13 85 -10 128 19 201 18 244 -3 278 -12 17
-28 32 -36 32 -19 0 -19 -2 2 -48 13 -29 16 -63 14 -162 -1 -69 4 -160 10
-203 11 -66 10 -82 -3 -110 l-15 -32 -13 55 c-6 30 -14 116 -15 190 -4 149
-20 276 -36 297 -19 23 -58 16 -65 -11z"/>
<path d="M1685 1082 c-38 -141 -40 -153 -41 -307 -2 -207 -1 -202 -16 -187 -6
6 -13 46 -15 89 -3 93 -34 164 -91 210 -43 35 -151 97 -157 91 -2 -2 22 -58
54 -123 46 -94 74 -137 131 -198 63 -70 71 -83 70 -115 -3 -71 0 -92 14 -92
17 0 28 34 26 81 -1 30 4 41 29 60 17 13 50 39 73 57 23 18 53 36 68 39 26 5
219 187 209 197 -2 2 -36 -2 -74 -10 -91 -19 -171 -58 -179 -87 -3 -12 -24
-46 -46 -74 -22 -29 -42 -64 -46 -77 -3 -14 -14 -32 -24 -41 -18 -16 -18 -16
-13 7 3 12 14 34 24 49 11 15 14 30 9 39 -6 10 -9 9 -13 -6 -4 -16 -5 -16 -6
3 -1 22 35 277 45 317 5 22 12 71 13 96 2 28 20 -5 36 -65 9 -34 15 -92 14
-134 -3 -89 13 -105 31 -32 10 42 9 64 -5 132 -14 73 -58 202 -74 221 -3 4
-24 -59 -46 -140z m-198 -212 c29 0 101 -126 89 -156 -3 -9 -1 -25 5 -36 18
-34 3 -31 -19 4 -11 18 -43 71 -71 117 -53 88 -64 116 -33 88 10 -10 23 -17
29 -17z m437 -61 c-23 -26 -183 -162 -204 -174 -29 -16 36 48 123 121 87 74
117 93 81 53z m-54 -3 c0 -7 -74 -76 -82 -76 -20 0 13 47 43 62 39 19 39 20
39 14z"/>
<path d="M1035 1040 c-15 -22 -34 -40 -43 -40 -12 0 -12 2 -1 17 12 15 12 16
-4 10 -10 -4 -27 -2 -37 3 -12 6 -21 6 -25 1 -3 -6 -36 -7 -77 -4 -86 7 -88
-12 -3 -22 70 -9 90 -32 23 -26 -24 3 -48 -47 -28 -59 17 -11 40 -1 62 25 12
13 20 16 25 9 5 -6 29 -23 56 -38 27 -17 47 -35 47 -45 0 -10 6 -18 13 -19 6
0 21 -2 32 -4 24 -4 32 26 14 58 -9 18 -18 22 -35 18 -15 -4 -39 4 -71 23 -43
25 -46 28 -24 31 15 2 30 -3 37 -13 8 -10 14 -12 19 -6 8 13 102 15 109 2 9
-14 61 3 64 21 2 9 -10 25 -26 37 -29 20 -29 20 -47 1 -12 -13 -31 -20 -53
-20 -33 0 -34 1 -20 18 23 25 40 62 30 62 -5 0 -22 -18 -37 -40z"/>
<path d="M785 920 c-33 -13 -48 -35 -33 -47 21 -17 56 -24 63 -14 3 6 39 10
81 9 68 -1 95 4 83 17 -3 2 -38 8 -78 11 -47 5 -75 12 -78 21 -6 15 -10 15
-38 3z"/>
<path d="M330 913 c0 -3 15 -19 33 -34 30 -25 31 -29 20 -58 -6 -17 -7 -29 -3
-26 5 3 17 -11 26 -31 40 -83 281 -229 501 -303 65 -22 113 -27 113 -13 0 18
-60 90 -133 159 -73 69 -283 241 -339 277 -34 22 -96 29 -125 15 -17 -9 -26
-8 -44 5 -24 16 -49 21 -49 9z m192 -57 c5 -9 25 -23 44 -31 39 -16 41 -23 14
-58 -11 -14 -20 -33 -20 -44 0 -10 9 1 21 25 25 49 46 54 60 13 10 -29 84 -89
96 -78 3 4 -6 11 -20 16 -26 10 -43 28 -34 37 3 3 46 -34 97 -83 50 -48 105
-96 121 -106 43 -28 39 -50 -8 -41 -21 4 -42 9 -48 13 -5 3 -12 6 -15 7 -9 1
-85 39 -90 44 -3 3 -47 27 -99 53 -132 67 -198 128 -205 188 -1 14 -6 30 -10
37 -5 8 -2 10 8 6 19 -7 22 12 4 20 -7 3 7 4 31 2 26 -3 48 -11 53 -20z"/>
<path d="M1920 703 c-51 -8 -57 -13 -35 -29 12 -9 16 -17 9 -22 -5 -4 -30 -21
-54 -38 -25 -17 -63 -41 -85 -54 -38 -23 -39 -23 -21 -2 11 13 16 28 12 38 -6
16 -8 16 -26 -2 -23 -24 -52 -94 -39 -94 6 0 44 16 86 35 73 33 108 58 198
139 l40 35 -30 -1 c-16 0 -41 -3 -55 -5z"/>
<path d="M1427 643 c42 -48 169 -140 180 -130 1 2 -2 20 -8 40 -20 73 -86 125
-183 142 l-39 7 50 -59z m113 -59 c24 -27 24 -27 -16 4 -22 17 -47 39 -55 49
-22 27 41 -20 71 -53z"/>
</g>
</svg>
