<?xml version="1.0" standalone="no"?>
<!DOCTYPE svg PUBLIC "-//W3C//DTD SVG 20010904//EN"
 "http://www.w3.org/TR/2001/REC-SVG-20010904/DTD/svg10.dtd">
<svg version="1.0" xmlns="http://www.w3.org/2000/svg"
 width="1667.000000pt" height="1667.000000pt" viewBox="0 0 1667.000000 1667.000000"
 preserveAspectRatio="xMidYMid meet">

<g transform="translate(0.000000,1667.000000) scale(0.100000,-0.100000)"
fill="#000000" stroke="none">
<path d="M9055 14193 c-165 -21 -350 -76 -480 -140 -346 -173 -578 -477 -579
-760 -1 -73 1 -84 24 -108 44 -48 99 -66 145 -49 9 4 37 48 62 98 91 183 179
294 308 391 144 108 322 188 504 225 176 36 410 21 514 -32 61 -31 122 -93
148 -151 34 -75 34 -247 0 -362 -63 -211 -214 -465 -415 -699 -91 -105 -95
-111 -73 -103 9 3 17 2 17 -3 0 -6 -10 -10 -23 -10 -18 0 -61 -42 -173 -166
-82 -92 -168 -189 -192 -215 -135 -149 -323 -392 -402 -519 -73 -116 -161
-303 -203 -430 -59 -178 -81 -312 -82 -491 l0 -157 -44 -6 c-24 -3 -74 -6
-111 -6 l-67 0 -18 48 c-59 159 -181 339 -325 480 -112 110 -337 288 -361 285
-11 -2 -16 2 -13 10 2 7 -24 34 -63 62 -168 123 -300 251 -374 363 -60 92 -83
153 -99 267 -31 218 56 508 206 685 29 35 53 71 51 79 -1 9 8 17 23 21 14 3
54 24 89 48 83 54 172 82 265 82 154 -1 212 -32 292 -155 62 -98 115 -141 182
-151 62 -9 93 9 111 66 17 54 5 144 -30 217 -31 65 -158 190 -245 242 -159 93
-316 135 -509 136 -149 0 -235 -17 -353 -71 -147 -67 -297 -200 -387 -343
-225 -359 -246 -826 -53 -1147 138 -229 327 -401 753 -684 94 -62 204 -139
245 -170 99 -75 229 -214 279 -298 49 -81 50 -80 -99 -81 -206 -2 -758 -31
-1150 -62 -1545 -121 -2438 -369 -2619 -727 -113 -224 -181 -598 -181 -999 l0
-111 -67 45 c-124 83 -262 138 -420 169 -120 24 -343 24 -437 1 -261 -65 -471
-247 -614 -533 -73 -145 -148 -414 -172 -614 -6 -52 -13 -110 -15 -127 -3 -27
0 -33 16 -33 10 0 19 -5 19 -11 0 -7 -9 -9 -21 -6 l-22 6 6 -267 c10 -482 95
-902 276 -1363 41 -104 41 -105 71 -101 29 4 41 -10 20 -23 -6 -4 -7 -11 -4
-17 4 -6 1 -14 -6 -18 -9 -6 -2 -30 28 -97 175 -378 438 -765 716 -1052 116
-119 306 -292 320 -290 27 3 38 -2 33 -15 -4 -10 18 -33 66 -69 508 -381 1087
-603 1745 -671 191 -20 314 -20 379 -1 65 19 133 72 174 136 l33 51 18 -22
c42 -52 177 -274 238 -395 37 -71 80 -170 96 -219 l29 -90 69 -44 c292 -190
848 -342 1481 -406 294 -30 495 -39 872 -40 361 -1 382 0 402 18 19 18 21 18
21 2 0 -16 7 -17 58 -12 31 3 104 8 162 11 165 10 185 12 361 34 541 68 954
179 1260 337 152 79 164 92 200 198 51 152 159 352 321 594 108 162 194 279
535 736 594 792 771 1060 960 1446 197 405 346 829 467 1330 63 260 98 452 86
464 -14 14 -13 27 2 24 13 -3 30 74 25 114 -2 16 0 28 3 28 8 0 22 100 46 325
24 224 30 706 10 909 -36 374 -115 635 -232 766 -52 57 -162 134 -269 187
-111 56 -267 113 -309 113 -19 0 -36 5 -38 12 -5 13 -45 26 -208 68 -467 119
-1128 210 -1935 265 -272 19 -285 19 -285 -1 0 -8 -5 -12 -10 -9 -6 4 -8 10
-5 15 7 12 -36 18 -185 25 -68 3 -126 7 -127 9 -7 7 -52 248 -64 340 -15 127
-7 285 19 353 55 145 171 209 435 238 175 20 178 224 4 309 -69 34 -128 41
-229 27 -326 -47 -532 -194 -602 -431 -50 -167 -19 -425 92 -768 l20 -64 -131
6 c-73 3 -285 9 -471 12 l-339 6 7 112 c11 194 50 345 138 533 132 281 266
456 653 853 337 345 467 496 458 531 -4 14 -1 18 10 13 40 -15 261 382 311
558 83 291 46 558 -107 756 -121 158 -353 279 -607 318 -87 13 -262 17 -335 7z
m115 -93 c18 -12 2 -12 -25 0 -13 6 -15 9 -5 9 8 0 22 -4 30 -9z m150 6 c0 -2
-7 -6 -15 -10 -8 -3 -15 -1 -15 4 0 6 7 10 15 10 8 0 15 -2 15 -4z m506 -453
c-10 -10 -19 5 -10 18 6 11 8 11 12 0 2 -7 1 -15 -2 -18z m89 -243 c3 -5 1
-10 -4 -10 -6 0 -11 5 -11 10 0 6 2 10 4 10 3 0 8 -4 11 -10z m122 -276 c-3
-3 -12 -4 -19 -1 -8 3 -5 6 6 6 11 1 17 -2 13 -5z m-2407 -24 c0 -5 -7 -10
-15 -10 -8 0 -15 5 -15 10 0 6 7 10 15 10 8 0 15 -4 15 -10z m-15 -80 c3 -5
-1 -10 -9 -10 -8 0 -18 5 -21 10 -3 6 1 10 9 10 8 0 18 -4 21 -10z m105 0 c0
-5 -4 -10 -10 -10 -5 0 -10 5 -10 10 0 6 5 10 10 10 6 0 10 -4 10 -10z m-1110
-120 c0 -5 -7 -10 -15 -10 -8 0 -15 5 -15 10 0 6 7 10 15 10 8 0 15 -4 15 -10z
m-130 -230 c0 -5 -4 -10 -10 -10 -5 0 -10 5 -10 10 0 6 5 10 10 10 6 0 10 -4
10 -10z m180 -970 c0 -5 -4 -10 -9 -10 -6 0 -13 5 -16 10 -3 6 1 10 9 10 9 0
16 -4 16 -10z m673 -700 c-3 -11 -7 -20 -9 -20 -2 0 -4 9 -4 20 0 11 4 20 9
20 5 0 7 -9 4 -20z m2107 -195 c0 -8 -7 -15 -16 -15 -14 0 -14 3 -4 15 7 8 14
15 16 15 2 0 4 -7 4 -15z m-1094 -7 c8 -9 -34 -20 -46 -13 -19 12 -10 24 15
21 14 -1 28 -5 31 -8z m-71 -166 c-8 -8 -25 10 -25 26 0 13 2 13 14 -4 8 -10
13 -21 11 -22z m-755 -238 c0 -8 -4 -12 -10 -9 -5 3 -10 13 -10 21 0 8 5 12
10 9 6 -3 10 -13 10 -21z m-432 -30 c34 -9 25 -45 -13 -56 -16 -4 -122 -12
-235 -18 -227 -12 -356 -24 -755 -76 -343 -44 -301 -39 -635 -74 -387 -42
-704 -93 -844 -136 -20 -6 -20 -6 -4 12 9 11 21 31 26 45 9 22 20 28 74 39 34
7 68 19 75 28 8 9 23 13 45 10 18 -3 85 3 148 13 63 11 272 37 465 59 192 22
404 47 470 55 66 8 121 15 123 15 3 0 -1 -6 -7 -13 -18 -22 -1 -27 28 -9 14 9
28 20 31 23 6 9 372 54 585 73 161 15 386 20 423 10z m2138 -80 c-4 -9 -9 -15
-11 -12 -3 3 -3 13 1 22 4 9 9 15 11 12 3 -3 3 -13 -1 -22z m-715 -67 c-16
-16 -26 0 -10 19 9 11 15 12 17 4 2 -6 -1 -17 -7 -23z m1953 -28 c-9 -10 -23
-19 -31 -19 -9 0 -4 11 14 29 30 31 46 22 17 -10z m-2109 -87 c57 -68 117
-120 122 -104 3 6 12 12 21 12 12 0 13 -3 4 -12 -19 -19 -15 -24 36 -56 183
-118 317 -142 367 -66 32 49 9 129 -50 170 -14 11 -52 38 -83 62 l-57 44 385
-8 c212 -3 405 -9 430 -13 41 -6 45 -9 51 -41 5 -22 4 -36 -3 -39 -6 -2 -5 -7
3 -12 11 -6 14 -39 14 -141 -1 -114 -4 -141 -23 -190 -41 -103 -127 -188 -232
-228 -77 -29 -87 -59 -40 -114 48 -54 86 -62 168 -36 244 80 367 236 391 493
7 75 6 93 -5 100 -19 11 -18 28 1 21 11 -5 13 2 10 28 -11 85 -13 148 -5 148
38 0 553 -33 700 -45 1174 -96 1887 -274 2061 -516 18 -26 18 -27 -2 -53 -11
-14 -16 -26 -10 -26 6 0 11 -5 11 -11 0 -5 -8 -9 -17 -7 -10 1 -42 -17 -72
-40 -102 -81 -414 -206 -486 -196 -21 3 -25 2 -12 -4 13 -6 -20 -17 -115 -39
-735 -175 -1880 -262 -3433 -263 -1991 -1 -3394 153 -3938 432 -98 51 -201
132 -212 169 -21 66 185 203 427 284 526 176 1420 283 2761 331 l188 7 -5 -34
c-3 -19 -8 -60 -11 -92 -8 -70 -43 -218 -91 -385 -31 -105 -34 -127 -24 -151
22 -54 130 -91 173 -58 21 16 79 151 132 312 41 122 45 130 69 130 30 -1 30
18 0 23 -19 3 -19 5 2 130 12 70 22 128 23 130 1 1 76 2 169 2 l167 0 40 -48z
m-605 28 c0 -5 -4 -10 -10 -10 -5 0 -10 5 -10 10 0 6 5 10 10 10 6 0 10 -4 10
-10z m-3190 -60 c0 -6 9 -6 25 0 18 7 25 6 25 -2 0 -17 -31 -48 -48 -48 -8 0
-12 -6 -8 -15 4 -11 -13 -20 -67 -36 -143 -42 -314 -123 -450 -211 -134 -88
-103 -40 48 74 84 63 299 174 398 204 31 10 57 24 57 31 0 7 5 13 10 13 6 0
10 -4 10 -10z m4140 -18 c0 -11 -41 -34 -48 -27 -4 4 2 13 12 21 22 15 36 18
36 6z m4020 -132 c0 -5 -7 -10 -16 -10 -8 0 -12 5 -9 10 3 6 10 10 16 10 5 0
9 -4 9 -10z m-10 -80 c0 -5 -4 -10 -9 -10 -6 0 -13 5 -16 10 -3 6 1 10 9 10 9
0 16 -4 16 -10z m-7965 -20 c-3 -5 -11 -10 -16 -10 -6 0 -7 5 -4 10 3 6 11 10
16 10 6 0 7 -4 4 -10z m-245 -50 c0 -5 -7 -10 -16 -10 -8 0 -12 5 -9 10 3 6
10 10 16 10 5 0 9 -4 9 -10z m8530 -24 c0 -3 -4 -8 -10 -11 -5 -3 -10 -1 -10
4 0 6 5 11 10 11 6 0 10 -2 10 -4z m-216 -309 c-76 -232 -327 -384 -879 -531
-552 -148 -1142 -222 -1469 -187 -120 13 -146 22 -146 50 0 40 18 43 362 52
399 10 540 24 863 90 193 39 550 130 668 169 259 87 421 202 555 393 57 81 57
82 60 49 2 -18 -4 -56 -14 -85z m-8468 -134 c-11 -11 -17 4 -9 23 7 18 8 18
11 1 2 -10 1 -21 -2 -24z m-74 -116 c51 -51 127 -115 168 -142 209 -136 535
-245 820 -274 144 -15 165 -22 165 -51 0 -20 -7 -26 -40 -33 -54 -12 -165 -1
-310 29 -173 37 -322 87 -471 159 -207 100 -340 213 -410 347 -42 82 -37 80
78 -35z m538 33 c0 -5 -5 -10 -11 -10 -5 0 -7 5 -4 10 3 6 8 10 11 10 2 0 4
-4 4 -10z m490 -179 c0 -12 -20 -25 -27 -18 -7 7 6 27 18 27 5 0 9 -4 9 -9z
m7290 -31 c0 -14 -15 -19 -29 -10 -17 10 -5 31 14 23 8 -3 15 -9 15 -13z
m-8633 -76 c17 -32 38 -83 47 -111 13 -46 13 -53 0 -53 -7 0 -14 -4 -14 -10 0
-5 7 -10 16 -10 23 0 11 -24 -14 -28 -27 -4 -37 16 -62 123 -11 48 -24 93 -27
99 -10 15 -13 38 -6 48 10 18 29 0 60 -58z m9233 -60 c26 -159 37 -338 21
-349 -7 -4 -15 -5 -18 -2 -3 3 -9 57 -13 119 -16 219 -22 363 -16 357 4 -3 15
-60 26 -125z m-746 101 c13 -34 -228 -175 -426 -251 -49 -19 -97 -33 -106 -33
-15 1 -15 2 1 6 26 7 20 23 -9 23 -35 0 -67 -19 -60 -35 3 -8 -3 -16 -12 -19
-40 -13 -163 -26 -244 -26 -72 0 -88 3 -88 15 0 11 11 15 38 15 48 0 174 22
282 50 153 39 361 130 560 244 53 30 56 31 64 11z m785 -26 c-15 -9 -32 -2
-24 11 3 5 13 6 21 3 12 -4 13 -8 3 -14z m-699 -30 c0 -6 -4 -7 -10 -4 -5 3
-10 11 -10 16 0 6 5 7 10 4 6 -3 10 -11 10 -16z m-6150 -149 c0 -5 -2 -10 -4
-10 -3 0 -8 5 -11 10 -3 6 -1 10 4 10 6 0 11 -4 11 -10z m2858 -45 c52 -28
142 -109 142 -127 0 -5 5 -6 10 -3 6 3 10 -1 10 -9 0 -20 -1 -17 16 -72 33
-109 15 -224 -66 -424 -145 -361 -212 -497 -385 -790 -64 -107 -172 -308 -240
-446 -117 -235 -124 -252 -115 -285 32 -111 44 -221 44 -404 -1 -174 -3 -199
-27 -290 -70 -259 -285 -569 -452 -651 -54 -26 -70 -29 -155 -29 -109 0 -140
12 -184 70 -22 28 -25 39 -16 50 9 10 7 15 -9 20 -37 12 -54 187 -31 321 29
162 138 456 243 653 l60 115 -61 -47 c-66 -51 -186 -118 -243 -136 -30 -10
-39 -20 -59 -69 -90 -222 -263 -487 -374 -574 l-34 -27 -6 24 c-4 14 -11 25
-16 25 -13 0 -13 -33 1 -47 13 -13 -26 -43 -108 -80 -47 -22 -77 -28 -153 -31
-162 -7 -301 45 -420 157 l-61 58 -92 -91 c-287 -285 -711 -453 -1052 -416
-404 43 -635 280 -722 741 -25 133 -25 525 0 694 25 167 61 322 107 464 177
535 484 976 875 1256 205 146 388 233 623 295 23 6 40 14 38 19 -3 4 18 8 47
8 29 0 113 3 187 7 105 6 156 5 232 -8 352 -58 572 -219 629 -463 60 -257 -89
-586 -340 -748 -38 -25 -73 -45 -76 -45 -4 0 -21 -10 -37 -22 -17 -12 -42 -22
-57 -23 -14 -1 -60 -10 -101 -20 -140 -32 -285 -2 -377 79 -70 61 -89 125 -58
186 23 45 84 71 188 80 207 20 364 156 442 385 23 66 23 186 1 220 -20 31 -89
66 -186 96 -69 21 -81 21 -171 11 -53 -6 -132 -23 -175 -36 -50 -16 -72 -20
-60 -11 11 8 23 15 28 15 4 0 8 5 8 11 0 18 -43 -1 -70 -31 -14 -16 -45 -38
-70 -50 -138 -69 -341 -242 -461 -395 -307 -389 -538 -963 -604 -1495 -29
-234 -16 -510 30 -643 9 -25 11 -43 5 -45 -6 -2 -10 -11 -10 -19 0 -9 6 -13
15 -9 10 4 21 -7 35 -35 32 -62 85 -114 143 -140 43 -20 67 -24 142 -23 160 2
338 61 518 171 34 21 73 38 86 38 17 0 27 7 30 22 4 11 47 60 98 107 l92 87
-17 52 c-13 40 -17 88 -16 207 0 148 1 159 33 255 56 168 147 329 264 467 106
124 316 260 476 308 66 20 88 22 210 17 196 -8 315 -45 396 -124 102 -99 130
-300 75 -532 -11 -46 -18 -86 -16 -88 7 -8 79 34 143 82 128 95 222 232 387
562 112 225 116 232 147 235 18 2 34 8 36 14 2 7 -8 9 -27 6 l-31 -4 64 128
c104 209 131 268 129 287 0 9 4 17 9 17 9 0 119 218 239 475 64 137 80 182 80
225 0 32 -5 43 -30 60 -32 23 -60 68 -60 95 0 33 32 84 63 99 24 13 53 16 117
13 71 -2 94 -8 138 -32z m-6328 15 c0 -5 -2 -10 -4 -10 -3 0 -8 5 -11 10 -3 6
-1 10 4 10 6 0 11 -4 11 -10z m9310 0 c0 -5 -2 -10 -4 -10 -3 0 -8 5 -11 10
-3 6 -1 10 4 10 6 0 11 -4 11 -10z m-9560 -48 c0 -5 -38 -27 -84 -50 -113 -56
-194 -118 -260 -198 -31 -37 -54 -69 -52 -71 2 -3 -6 -15 -18 -27 -11 -13 -37
-57 -57 -97 -123 -250 -181 -566 -182 -1009 -1 -124 2 -256 5 -295 17 -177 30
-385 25 -399 -11 -29 -45 -19 -56 17 -21 64 -40 174 -52 300 -13 146 -7 640
10 752 6 39 13 88 15 110 13 120 100 403 162 526 121 241 281 384 484 434 30
7 56 14 58 14 1 1 2 -3 2 -7z m8350 -52 c0 -5 -4 -10 -9 -10 -6 0 -13 5 -16
10 -3 6 1 10 9 10 9 0 16 -4 16 -10z m-3840 -18 c0 -13 -12 -22 -22 -16 -10 6
-1 24 13 24 5 0 9 -4 9 -8z m4650 0 c0 -13 -12 -22 -22 -16 -10 6 -1 24 13 24
5 0 9 -4 9 -8z m815 -2 c4 -6 1 -33 -6 -60 -7 -27 -10 -52 -7 -56 8 -7 44 12
90 49 63 51 97 7 39 -51 -60 -60 -135 -78 -171 -42 -22 22 -24 40 -10 89 18
62 49 96 65 71z m-7892 -40 c3 -11 1 -20 -4 -20 -5 0 -9 9 -9 20 0 11 2 20 4
20 2 0 6 -9 9 -20z m-1518 -30 c3 -5 -3 -10 -15 -10 -12 0 -18 5 -15 10 3 6
10 10 15 10 5 0 12 -4 15 -10z m4655 0 c0 -5 -7 -10 -16 -10 -8 0 -12 5 -9 10
3 6 10 10 16 10 5 0 9 -4 9 -10z m4650 0 c0 -5 -7 -10 -15 -10 -8 0 -15 5 -15
10 0 6 7 10 15 10 8 0 15 -4 15 -10z m-7210 -33 c0 -7 -48 -64 -106 -127 -125
-135 -205 -232 -261 -315 -42 -64 -140 -236 -169 -297 -13 -29 -24 -38 -42
-38 -23 0 -24 3 -19 35 15 92 153 335 273 479 50 61 58 67 69 53 19 -26 27
-20 20 12 -6 26 1 35 74 101 112 102 161 132 161 97z m-1685 -17 c-3 -5 -13
-10 -21 -10 -8 0 -14 5 -14 10 0 6 9 10 21 10 11 0 17 -4 14 -10z m4660 0 c-3
-5 -13 -10 -21 -10 -8 0 -14 5 -14 10 0 6 9 10 21 10 11 0 17 -4 14 -10z
m4650 0 c-3 -5 -13 -10 -21 -10 -8 0 -14 5 -14 10 0 6 9 10 21 10 11 0 17 -4
14 -10z m-7427 -112 c-368 -253 -620 -627 -888 -1318 -41 -105 -62 -146 -75
-149 -16 -3 -17 2 -12 36 33 207 196 586 358 833 189 290 345 454 568 598 113
73 155 73 49 0z m-2238 42 c0 -5 -4 -10 -10 -10 -5 0 -10 5 -10 10 0 6 5 10
10 10 6 0 10 -4 10 -10z m1436 -11 c14 -15 16 -24 8 -37 -14 -22 -54 -28 -65
-10 -14 21 -10 48 6 48 8 0 15 5 15 10 0 16 16 12 36 -11z m3224 11 c0 -5 -4
-10 -10 -10 -5 0 -10 5 -10 10 0 6 5 10 10 10 6 0 10 -4 10 -10z m4650 0 c0
-5 -4 -10 -10 -10 -5 0 -10 5 -10 10 0 6 5 10 10 10 6 0 10 -4 10 -10z m355
-20 c3 -6 1 -26 -6 -45 -15 -40 -42 -44 -47 -8 -6 43 34 83 53 53z m-4065 -11
c0 -6 -25 -54 -56 -107 -94 -163 -197 -385 -299 -642 -106 -269 -180 -424
-255 -536 -57 -83 -62 -88 -95 -80 -31 8 -41 45 -22 82 8 16 12 35 10 42 -3 6
2 12 10 12 17 0 205 372 293 580 131 313 223 475 336 596 59 62 78 76 78 53z
m-4860 -9 c0 -5 -5 -10 -11 -10 -5 0 -7 5 -4 10 3 6 8 10 11 10 2 0 4 -4 4
-10z m4660 0 c0 -5 -5 -10 -11 -10 -5 0 -7 5 -4 10 3 6 8 10 11 10 2 0 4 -4 4
-10z m4650 0 c0 -5 -5 -10 -11 -10 -5 0 -7 5 -4 10 3 6 8 10 11 10 2 0 4 -4 4
-10z m-2605 -36 c189 -32 314 -71 730 -227 269 -100 448 -163 490 -170 11 -2
27 -7 35 -10 36 -13 152 -37 235 -48 120 -15 227 -5 342 33 51 16 99 28 108
24 30 -11 15 -43 -37 -80 -137 -93 -313 -105 -606 -40 -158 35 -320 88 -652
214 -544 206 -790 268 -1077 273 -73 1 -133 5 -133 9 0 10 67 27 152 38 95 12
299 4 413 -16z m845 6 c-8 -5 -19 -10 -25 -10 -5 0 -3 5 5 10 8 5 20 10 25 10
6 0 3 -5 -5 -10z m-7540 -4 c0 -3 -4 -8 -10 -11 -5 -3 -10 -1 -10 4 0 6 5 11
10 11 6 0 10 -2 10 -4z m2670 -6 c0 -5 -4 -10 -10 -10 -5 0 -10 5 -10 10 0 6
5 10 10 10 6 0 10 -4 10 -10z m1990 6 c0 -3 -4 -8 -10 -11 -5 -3 -10 -1 -10 4
0 6 5 11 10 11 6 0 10 -2 10 -4z m2660 -6 c0 -5 -4 -10 -10 -10 -5 0 -10 5
-10 10 0 6 5 10 10 10 6 0 10 -4 10 -10z m1990 6 c0 -3 -4 -8 -10 -11 -5 -3
-10 -1 -10 4 0 6 5 11 10 11 6 0 10 -2 10 -4z m-9390 -26 c0 -5 -4 -10 -9 -10
-6 0 -13 5 -16 10 -3 6 1 10 9 10 9 0 16 -4 16 -10z m4660 0 c0 -5 -4 -10 -9
-10 -6 0 -13 5 -16 10 -3 6 1 10 9 10 9 0 16 -4 16 -10z m4650 0 c0 -5 -4 -10
-9 -10 -6 0 -13 5 -16 10 -3 6 1 10 9 10 9 0 16 -4 16 -10z m-9109 -29 c32
-33 36 -52 14 -71 -11 -9 -21 -5 -50 24 -34 34 -42 55 -28 69 13 14 35 6 64
-22z m4127 17 c17 -17 14 -57 -8 -105 -10 -24 -16 -43 -13 -43 4 0 4 -3 0 -6
-3 -3 -15 3 -27 14 -21 20 -21 21 -4 73 9 30 19 60 20 67 4 15 17 15 32 0z
m-1520 -20 c-4 -11 -133 -80 -176 -93 -37 -11 -41 23 -6 52 49 40 192 72 182
41z m-4258 -42 c0 -3 -4 -8 -10 -11 -5 -3 -10 -1 -10 4 0 6 5 11 10 11 6 0 10
-2 10 -4z m545 -6 c-3 -5 -10 -10 -16 -10 -5 0 -9 5 -9 10 0 6 7 10 16 10 8 0
12 -4 9 -10z m4660 0 c-3 -5 -10 -10 -16 -10 -5 0 -9 5 -9 10 0 6 7 10 16 10
8 0 12 -4 9 -10z m4105 6 c0 -3 -4 -8 -10 -11 -5 -3 -10 -1 -10 4 0 6 5 11 10
11 6 0 10 -2 10 -4z m545 -6 c-3 -5 -10 -10 -16 -10 -5 0 -9 5 -9 10 0 6 7 10
16 10 8 0 12 -4 9 -10z m-1908 -46 c209 -30 398 -87 827 -248 539 -202 763
-274 980 -312 121 -21 273 -21 356 -1 79 20 170 22 213 3 44 -18 94 -67 103
-99 9 -40 -1 -69 -40 -109 -80 -83 -212 -113 -456 -105 -301 10 -539 75 -1180
324 -295 115 -439 165 -452 156 -6 -3 -13 -1 -17 6 -10 15 -215 68 -337 86
-54 8 -161 15 -237 15 l-137 0 14 -22 c22 -34 46 -135 46 -194 0 -79 -31 -182
-123 -404 -111 -268 -190 -435 -211 -443 -9 -4 -16 -16 -16 -27 0 -12 -33 -76
-72 -143 l-73 -122 -42 3 c-34 2 -43 0 -43 -12 0 -12 10 -16 35 -16 l35 0 -45
-82 c-25 -46 -72 -134 -103 -196 -50 -100 -60 -113 -79 -109 -13 2 -23 1 -23
-3 0 -3 -15 -5 -32 -3 -27 3 -29 1 -13 -6 11 -5 32 -10 48 -10 15 -1 27 -3 27
-5 0 -2 -22 -50 -49 -107 l-49 -104 18 -89 c47 -222 50 -444 9 -620 -67 -286
-301 -616 -487 -686 -69 -26 -181 -27 -237 -1 -89 40 -135 145 -135 307 0 154
30 272 137 543 115 292 165 400 643 1376 336 686 460 972 460 1059 0 30 -5 37
-35 52 -45 21 -69 65 -61 110 13 66 142 182 246 220 125 45 357 53 587 18z
m-5553 -25 c-3 -5 -10 -7 -15 -3 -5 3 -7 10 -3 15 3 5 10 7 15 3 5 -3 7 -10 3
-15z m4656 5 c0 -8 -5 -12 -10 -9 -6 4 -8 11 -5 16 9 14 15 11 15 -7z m3624
-6 c27 -38 15 -121 -20 -135 -29 -11 -37 12 -29 86 8 76 21 89 49 49z m-9649
2 c-3 -5 -10 -10 -16 -10 -5 0 -9 5 -9 10 0 6 7 10 16 10 8 0 12 -4 9 -10z
m4660 0 c3 -5 -1 -10 -9 -10 -9 0 -16 5 -16 10 0 6 4 10 9 10 6 0 13 -4 16
-10z m4645 0 c0 -5 -5 -10 -11 -10 -5 0 -7 5 -4 10 3 6 8 10 11 10 2 0 4 -4 4
-10z m-6500 -54 c0 -8 -12 -24 -27 -36 -82 -63 -343 -337 -309 -324 9 3 16 2
16 -3 0 -15 -22 -32 -35 -27 -6 3 -23 -11 -36 -30 -13 -20 -30 -36 -37 -36 -7
0 -11 -4 -8 -9 3 -5 -19 -51 -49 -102 -30 -51 -58 -101 -61 -112 -5 -16 -8
-17 -16 -6 -8 11 -9 10 -4 -4 4 -11 -26 -82 -79 -187 -67 -135 -89 -170 -105
-170 -28 0 -26 25 10 131 99 297 431 748 653 889 66 42 87 49 87 26z m-1855
-46 c-3 -5 -13 -10 -21 -10 -8 0 -12 5 -9 10 3 6 13 10 21 10 8 0 12 -4 9 -10z
m72 -26 c-3 -3 -12 -4 -19 -1 -8 3 -5 6 6 6 11 1 17 -2 13 -5z m-187 -56 c0
-5 -4 -8 -10 -8 -5 0 -10 10 -10 23 0 18 2 19 10 7 5 -8 10 -18 10 -22z
m-1229 -35 c-8 -15 -10 -15 -11 -2 0 17 10 32 18 25 2 -3 -1 -13 -7 -23z
m4660 0 c-8 -15 -10 -15 -11 -2 0 17 10 32 18 25 2 -3 -1 -13 -7 -23z m4650
-6 c-8 -8 -11 -7 -11 4 0 20 13 34 18 19 3 -7 -1 -17 -7 -23z m-9791 -26 c-6
-12 -16 -19 -21 -15 -6 4 -4 13 7 25 21 24 29 18 14 -10z m-536 -12 c-3 -5
-10 -7 -15 -3 -5 3 -7 10 -3 15 3 5 10 7 15 3 5 -3 7 -10 3 -15z m4660 0 c-3
-5 -10 -7 -15 -3 -5 3 -7 10 -3 15 3 5 10 7 15 3 5 -3 7 -10 3 -15z m4650 0
c-3 -5 -10 -7 -15 -3 -5 3 -7 10 -3 15 3 5 10 7 15 3 5 -3 7 -10 3 -15z
m-7114 -44 c-7 -8 -17 -15 -22 -15 -6 0 -5 7 2 15 7 8 17 15 22 15 6 0 5 -7
-2 -15z m-1267 -63 c73 -24 124 -60 193 -135 71 -77 127 -173 204 -354 35 -81
66 -150 70 -153 4 -3 10 -21 14 -40 9 -48 95 -225 144 -297 51 -74 84 -105
151 -141 l54 -30 72 -203 c229 -648 433 -1011 1005 -1787 45 -62 80 -115 77
-118 -8 -8 -246 14 -352 32 -300 51 -618 174 -862 332 -70 46 -94 57 -103 48
-10 -8 -12 -7 -7 6 4 11 -3 22 -19 32 -199 131 -514 462 -692 728 -441 660
-627 1468 -432 1885 31 68 93 141 148 175 81 50 218 58 335 20z m3112 7 c-4
-5 -13 -9 -22 -9 -13 0 -13 3 -3 15 13 15 35 11 25 -6z m-2075 -39 c0 -5 -13
-10 -30 -10 -16 0 -30 5 -30 10 0 6 14 10 30 10 17 0 30 -4 30 -10z m1020 0
c0 -5 -7 -10 -16 -10 -8 0 -12 5 -9 10 3 6 10 10 16 10 5 0 9 -4 9 -10z m5570
-19 c0 -13 -26 -32 -33 -24 -8 7 11 33 24 33 5 0 9 -4 9 -9z m-4020 -16 c0 -8
-9 -15 -20 -15 -11 0 -20 7 -20 15 0 8 9 15 20 15 11 0 20 -7 20 -15z m3640
-87 c-1 -95 -55 -269 -128 -411 -58 -113 -76 -137 -93 -120 -12 12 -3 39 87
250 41 94 81 199 90 232 10 36 23 61 31 61 7 0 13 -6 13 -12z m-6275 -36 c-8
-8 -25 10 -25 26 0 13 2 13 14 -4 8 -10 13 -21 11 -22z m1765 -18 c0 -10 -33
-33 -47 -34 -7 0 -13 6 -13 14 0 8 6 17 13 19 18 8 47 8 47 1z m4660 0 c0 -10
-33 -33 -47 -34 -7 0 -13 6 -13 14 0 8 6 17 13 19 18 8 47 8 47 1z m-2675 -24
c3 -5 4 -10 1 -10 -2 0 -12 -3 -20 -6 -12 -5 -15 -2 -10 10 7 18 20 21 29 6z
m-3742 -57 c27 -47 6 -121 -27 -94 -18 15 -20 38 -6 75 9 25 24 34 33 19z
m837 -43 c0 -5 -7 -10 -15 -10 -8 0 -15 5 -15 10 0 6 7 10 15 10 8 0 15 -4 15
-10z m4655 0 c-3 -5 -10 -10 -16 -10 -5 0 -9 5 -9 10 0 6 7 10 16 10 8 0 12
-4 9 -10z m1655 0 c0 -11 -14 -11 -50 0 -22 7 -21 8 13 9 20 1 37 -3 37 -9z
m-6660 -19 c0 -12 -28 -22 -34 -12 -3 5 -3 11 1 15 9 9 33 7 33 -3z m4660 0
c0 -14 -18 -23 -30 -16 -6 4 -8 11 -5 16 8 12 35 12 35 0z m1933 -28 c-7 -2
-19 -2 -25 0 -7 3 -2 5 12 5 14 0 19 -2 13 -5z m174 -78 c69 -37 95 -62 91
-88 -5 -34 -34 -31 -81 7 -59 48 -123 76 -179 76 -48 0 -71 15 -47 32 8 5 48
7 89 5 59 -3 87 -10 127 -32z m-8982 5 c-20 -22 -31 -20 -22 5 4 8 14 15 23
15 16 0 16 -2 -1 -20z m9310 0 c-20 -22 -31 -20 -22 5 4 8 14 15 23 15 16 0
16 -2 -1 -20z m-5697 -132 c-18 -33 -34 -56 -35 -51 -6 18 46 125 57 118 7 -4
-2 -29 -22 -67z m-1668 27 c0 -8 -7 -15 -16 -15 -14 0 -14 3 -4 15 7 8 14 15
16 15 2 0 4 -7 4 -15z m-112 -81 c54 8 75 -15 37 -40 -22 -14 -32 -15 -65 -5
-43 13 -80 52 -80 84 0 19 4 17 34 -12 31 -30 39 -33 74 -27z m6232 -2 c-17
-29 -46 -40 -62 -24 -7 7 0 21 22 42 24 23 35 29 44 20 8 -8 7 -18 -4 -38z
m-3616 -117 c-108 -103 -116 -114 -91 -115 15 0 27 -5 27 -11 0 -7 -12 -9 -32
-5 -31 5 -36 2 -82 -55 -121 -153 -207 -303 -257 -450 -43 -124 -46 -255 -10
-367 18 -58 21 -75 11 -87 -29 -35 -71 -4 -105 79 -13 30 -13 36 -1 36 17 0
41 28 32 37 -4 4 -16 2 -27 -5 -28 -18 -33 1 -27 121 12 221 136 475 340 692
66 70 86 86 105 82 17 -3 21 -1 13 8 -7 8 -3 18 13 32 35 33 178 123 194 123
8 0 -38 -52 -103 -115z m6086 105 c0 -5 -4 -10 -10 -10 -5 0 -10 5 -10 10 0 6
5 10 10 10 6 0 10 -4 10 -10z m66 -54 c14 -36 -69 -141 -105 -134 -31 6 -23
44 21 96 43 51 74 65 84 38z m-8500 -31 c-23 -17 -36 -19 -36 -6 0 11 18 19
40 20 11 0 10 -3 -4 -14z m4660 0 c-26 -19 -42 -19 -26 0 7 8 20 15 29 15 13
-1 13 -3 -3 -15z m-2611 -15 c3 -5 -29 -45 -72 -88 -115 -114 -206 -258 -287
-454 -16 -39 -35 -48 -55 -24 -8 10 -7 24 4 56 18 50 18 53 6 45 -5 -3 -12 -1
-15 4 -6 10 11 26 27 26 5 0 19 25 32 56 42 104 107 203 184 279 90 90 158
129 176 100z m-2221 -25 c-6 -16 -24 -21 -24 -7 0 11 11 22 21 22 5 0 6 -7 3
-15z m4666 6 c0 -12 -20 -25 -27 -18 -7 7 6 27 18 27 5 0 9 -4 9 -9z m-789
-44 c-8 -8 -11 -5 -11 9 0 27 14 41 18 19 2 -9 -1 -22 -7 -28z m4650 0 c-8 -8
-11 -5 -11 9 0 27 14 41 18 19 2 -9 -1 -22 -7 -28z m-7187 -13 c16 -42 -9
-124 -39 -124 -23 0 -26 17 -13 80 9 45 16 60 29 60 9 0 20 -7 23 -16z m86 1
c-7 -8 -20 -15 -29 -15 -11 0 -8 5 9 14 33 19 35 19 20 1z m4660 0 c-7 -8 -17
-15 -23 -15 -6 0 -2 7 9 15 25 19 30 19 14 0z m-4810 -15 c0 -5 -4 -10 -9 -10
-6 0 -13 5 -16 10 -3 6 1 10 9 10 9 0 16 -4 16 -10z m4520 -26 c8 -44 0 -75
-19 -72 -17 3 -28 66 -17 95 9 23 30 9 36 -23z m140 26 c0 -5 -4 -10 -9 -10
-6 0 -13 5 -16 10 -3 6 1 10 9 10 9 0 16 -4 16 -10z m1170 -40 c0 -13 -30 -13
-50 0 -11 7 -7 10 18 10 17 0 32 -4 32 -10z m482 -45 c-2 -5 -63 -25 -135 -42
-139 -35 -234 -74 -335 -136 -46 -29 -66 -37 -74 -29 -16 16 3 35 89 88 83 52
203 95 313 114 41 6 82 13 90 15 27 6 55 0 52 -10z m-1982 -165 c12 -8 9 -10
-13 -10 -16 0 -26 4 -22 10 8 12 16 12 35 0z m2110 6 c0 -3 -4 -8 -10 -11 -5
-3 -10 -1 -10 4 0 6 5 11 10 11 6 0 10 -2 10 -4z m-1331 -32 c209 -47 289
-192 231 -418 -32 -127 -91 -228 -189 -327 -164 -164 -368 -271 -620 -325
l-80 -17 -7 -55 c-4 -30 -4 -94 -2 -141 6 -100 29 -160 77 -206 31 -29 36 -30
119 -29 71 0 100 5 157 29 139 56 295 186 410 340 44 60 53 80 63 141 25 158
103 345 203 490 162 234 454 450 675 500 144 32 302 7 372 -59 92 -86 95 -273
6 -466 -59 -128 -137 -218 -280 -322 -58 -43 -68 -47 -105 -42 -41 6 -42 5
-36 -19 6 -24 2 -28 -61 -56 -76 -34 -216 -78 -278 -88 -23 -3 -47 -9 -53 -14
-32 -19 -42 -219 -16 -308 18 -60 61 -114 105 -132 44 -18 207 -8 308 20 46
12 125 44 175 69 73 38 91 51 89 67 -2 14 0 15 6 6 12 -18 83 39 184 147 85
91 171 213 244 348 59 109 70 123 104 123 40 0 94 -40 98 -73 7 -60 -78 -263
-169 -402 -108 -165 -344 -368 -525 -451 -201 -93 -508 -117 -697 -53 -122 41
-254 153 -303 257 -14 31 -27 58 -28 59 -1 1 -36 -31 -78 -71 -139 -132 -327
-246 -458 -276 -30 -7 -99 -13 -152 -12 -299 3 -497 154 -564 427 -26 105 -23
294 6 415 27 112 79 250 128 339 26 48 32 65 22 71 -16 10 -4 31 14 24 8 -3
39 29 80 84 238 321 543 471 825 406z m-5044 -29 c57 -26 68 -47 27 -53 -31
-5 -102 37 -102 60 0 23 7 23 75 -7z m429 -74 c-7 -33 -24 -43 -24 -13 0 10
-5 23 -12 30 -8 8 -8 15 1 26 20 24 42 -4 35 -43z m-3859 -344 c32 -94 87
-246 122 -336 59 -154 84 -205 176 -371 38 -68 45 -98 26 -117 -25 -25 -101
39 -83 69 5 7 2 9 -9 5 -39 -15 -211 392 -276 654 -32 129 -54 276 -44 293 11
18 31 -26 88 -197z m2428 78 c-3 -9 -8 -14 -10 -11 -3 3 -2 9 2 15 9 16 15 13
8 -4z m8207 -145 c0 -5 -4 -10 -10 -10 -5 0 -10 5 -10 10 0 6 5 10 10 10 6 0
10 -4 10 -10z m-7393 -37 c-9 -9 -19 -14 -23 -11 -10 10 6 28 24 28 15 0 15
-1 -1 -17z m738 7 c-3 -5 -13 -10 -21 -10 -8 0 -14 5 -14 10 0 6 9 10 21 10
11 0 17 -4 14 -10z m3372 -76 c-3 -3 -12 -4 -19 -1 -8 3 -5 6 6 6 11 1 17 -2
13 -5z m148 -4 c-3 -5 -11 -10 -16 -10 -6 0 -7 5 -4 10 3 6 11 10 16 10 6 0 7
-4 4 -10z m3132 -32 c-3 -8 -6 -5 -6 6 -1 11 2 17 5 13 3 -3 4 -12 1 -19z
m-7306 -58 c25 -77 19 -101 -19 -75 -39 28 -53 145 -17 145 7 0 23 -32 36 -70z
m-2661 -20 c0 -5 -7 -10 -15 -10 -8 0 -15 5 -15 10 0 6 7 10 15 10 8 0 15 -4
15 -10z m9310 0 c0 -5 -7 -10 -15 -10 -8 0 -15 5 -15 10 0 6 7 10 15 10 8 0
15 -4 15 -10z m-6320 -236 c0 -36 -82 -74 -129 -59 -32 10 -25 25 12 25 19 0
44 10 62 25 35 28 55 32 55 9z m-334 -71 c-10 -10 -19 5 -10 18 6 11 8 11 12
0 2 -7 1 -15 -2 -18z m-2599 -29 c-9 -9 -28 6 -21 18 4 6 10 6 17 -1 6 -6 8
-13 4 -17z m4663 5 c0 -5 -4 -9 -10 -9 -5 0 -10 7 -10 16 0 8 5 12 10 9 6 -3
10 -10 10 -16z m4650 0 c0 -5 -4 -9 -10 -9 -5 0 -10 7 -10 16 0 8 5 12 10 9 6
-3 10 -10 10 -16z m-7604 -115 c-4 -9 -9 -15 -11 -12 -3 3 -3 13 1 22 4 9 9
15 11 12 3 -3 3 -13 -1 -22z m5898 -95 c-9 -10 -23 -19 -31 -19 -9 0 -4 11 14
29 30 31 46 22 17 -10z m-5625 -53 c-12 -10 -59 -15 -59 -6 0 5 14 10 32 10
17 0 29 -2 27 -4z m4660 0 c-12 -10 -59 -15 -59 -6 0 5 14 10 32 10 17 0 29
-2 27 -4z m-6964 -36 c5 -8 11 -7 21 1 9 7 14 8 14 1 0 -6 -5 -12 -11 -14 -13
-4 34 -82 112 -189 27 -37 49 -73 49 -81 0 -21 -21 -38 -46 -38 -26 0 -39 16
-39 45 0 12 -6 19 -15 18 -15 -3 -68 73 -109 154 -28 56 -29 113 -2 113 11 0
23 -5 26 -10z m745 0 c12 -8 9 -10 -12 -10 -16 0 -28 5 -28 10 0 13 20 13 40
0z m3950 0 c0 -5 -5 -10 -11 -10 -5 0 -7 5 -4 10 3 6 8 10 11 10 2 0 4 -4 4
-10z m-2670 -30 c0 -5 -4 -10 -10 -10 -5 0 -10 5 -10 10 0 6 5 10 10 10 6 0
10 -4 10 -10z m2760 -52 c60 -31 82 -72 88 -163 5 -87 1 -103 -93 -310 -39
-88 -75 -168 -78 -177 -5 -14 2 -18 41 -23 74 -10 106 -23 140 -57 35 -33 45
-60 40 -104 -2 -24 -13 -34 -60 -58 -50 -24 -73 -29 -167 -34 l-109 -5 -72
-186 c-40 -102 -77 -199 -84 -216 -15 -34 -44 -123 -48 -145 -2 -8 -5 -17 -8
-20 -3 -3 -21 -45 -39 -95 -18 -49 -62 -163 -97 -252 -35 -89 -66 -174 -70
-189 -7 -26 -6 -27 25 -21 28 6 115 45 179 81 32 18 193 202 251 286 52 75 67
110 131 304 103 306 145 366 258 366 80 0 177 -52 207 -110 19 -37 19 -136 -1
-220 -8 -36 -48 -148 -89 -250 -67 -166 -135 -390 -135 -441 0 -26 12 -24 91
17 70 37 201 157 254 233 30 45 68 188 51 195 -7 2 -5 9 5 17 9 8 26 48 37 89
108 401 148 470 272 470 60 0 117 -22 166 -63 31 -26 47 -55 59 -110 l6 -29
32 40 c144 177 338 202 464 58 53 -60 73 -119 80 -229 l6 -88 43 80 c145 273
316 392 484 336 103 -34 165 -121 179 -249 13 -123 -12 -290 -88 -578 -38
-142 -38 -147 -18 -136 27 14 133 120 171 170 17 23 37 72 50 125 73 284 256
526 469 623 207 94 426 41 467 -111 22 -80 -9 -212 -73 -311 -93 -145 -332
-298 -520 -333 -32 -6 -37 -12 -43 -42 -17 -93 24 -231 77 -258 56 -29 168 -7
259 50 80 51 239 236 355 413 37 57 72 101 79 99 24 -8 37 -53 34 -117 -9
-186 -266 -499 -491 -598 -215 -95 -493 -17 -573 160 l-17 38 -71 -68 c-113
-107 -241 -161 -380 -162 -132 0 -239 121 -221 249 7 50 63 259 126 466 21 72
39 140 39 153 0 13 4 21 8 18 5 -3 16 18 25 47 l16 52 -35 -40 c-126 -143
-160 -201 -370 -645 -81 -171 -140 -267 -174 -285 -65 -33 -159 -12 -231 53
-58 52 -74 98 -66 187 6 61 96 453 142 614 14 50 25 93 25 97 0 15 -72 -62
-115 -121 -69 -96 -108 -169 -190 -355 -43 -96 -80 -177 -84 -180 -3 -3 -8
-14 -9 -25 -6 -30 -69 -152 -91 -172 -10 -10 -24 -35 -30 -55 -16 -48 -44 -68
-96 -68 -86 1 -159 58 -200 159 l-20 49 -75 -61 c-41 -33 -109 -76 -150 -95
-66 -31 -87 -36 -177 -40 -91 -4 -103 -3 -103 12 0 9 -4 16 -10 16 -5 0 -10
-5 -10 -11 0 -16 -48 -2 -93 27 -46 30 -91 99 -107 162 l-11 47 -52 -48 c-76
-72 -181 -143 -246 -168 -39 -15 -87 -23 -156 -26 -86 -4 -108 -2 -159 17 -67
25 -138 86 -166 140 -42 83 -44 197 -4 356 13 49 26 77 47 97 21 19 25 27 13
27 -9 0 -16 2 -16 4 0 2 20 59 44 127 101 281 236 683 231 687 -8 9 -522 170
-635 199 -95 25 -121 28 -275 28 -157 -1 -176 -3 -250 -28 -44 -15 -111 -43
-149 -62 -39 -19 -80 -35 -93 -35 -57 0 -106 52 -90 95 11 26 114 87 136 80
12 -4 21 -2 21 4 0 6 -6 11 -12 11 -25 1 99 60 187 89 129 42 233 55 399 48
175 -6 233 -18 574 -119 151 -44 277 -77 281 -72 4 5 29 61 56 124 73 176 161
342 207 395 46 53 143 105 193 105 17 0 51 -10 75 -22z m-3910 -98 c0 -5 -7
-10 -16 -10 -8 0 -12 5 -9 10 3 6 10 10 16 10 5 0 9 -4 9 -10z m4660 0 c0 -5
-7 -10 -16 -10 -8 0 -12 5 -9 10 3 6 10 10 16 10 5 0 9 -4 9 -10z m-1163 -6
c-3 -3 -12 -4 -19 -1 -8 3 -5 6 6 6 11 1 17 -2 13 -5z m-3507 -74 c0 -5 -4
-10 -9 -10 -6 0 -13 5 -16 10 -3 6 1 10 9 10 9 0 16 -4 16 -10z m4660 0 c0 -5
-4 -10 -9 -10 -6 0 -13 5 -16 10 -3 6 1 10 9 10 9 0 16 -4 16 -10z m-3315 -20
c-3 -5 -11 -10 -16 -10 -6 0 -7 5 -4 10 3 6 11 10 16 10 6 0 7 -4 4 -10z
m4660 0 c-3 -5 -11 -10 -16 -10 -6 0 -7 5 -4 10 3 6 11 10 16 10 6 0 7 -4 4
-10z m-1472 -34 c113 -86 117 -315 9 -482 -49 -75 -98 -108 -161 -107 -86 1
-179 61 -202 130 -14 45 -2 90 52 189 21 39 52 111 69 160 39 118 70 148 145
142 36 -3 62 -12 88 -32z m4151 -18 c-33 -108 -232 -396 -318 -462 -29 -21
-35 -23 -40 -10 -10 26 -28 4 -24 -31 2 -31 -10 -47 -162 -207 -173 -182 -184
-193 -200 -183 -42 26 67 166 377 491 154 160 286 318 326 386 25 42 53 53 41
16z m-3712 -30 c-7 -7 -12 -8 -12 -2 0 14 12 26 19 19 2 -3 -1 -11 -7 -17z
m3398 -8 c0 -5 -4 -10 -10 -10 -5 0 -10 5 -10 10 0 6 5 10 10 10 6 0 10 -4 10
-10z m-2017 -54 c174 -142 433 -152 679 -26 105 54 125 59 135 34 21 -54 -184
-148 -383 -175 -180 -24 -377 38 -459 145 -24 31 -32 56 -19 56 3 0 24 -15 47
-34z m-3123 -6 c0 -5 -2 -10 -4 -10 -3 0 -8 5 -11 10 -3 6 -1 10 4 10 6 0 11
-4 11 -10z m-2982 -49 c133 -89 513 -288 636 -332 23 -8 42 -23 47 -36 9 -25
19 -29 35 -13 6 6 21 3 42 -10 31 -19 38 -34 27 -62 -15 -39 -310 99 -580 270
-106 68 -275 200 -275 216 0 11 11 6 68 -33z m-843 0 c3 -5 1 -13 -5 -16 -15
-9 -43 3 -35 15 8 13 32 13 40 1z m4660 0 c3 -5 1 -13 -5 -16 -15 -9 -43 3
-35 15 8 13 32 13 40 1z m4650 0 c3 -5 1 -13 -5 -16 -15 -9 -43 3 -35 15 8 13
32 13 40 1z m-5520 -131 c-3 -5 -11 -10 -16 -10 -6 0 -7 5 -4 10 3 6 11 10 16
10 6 0 7 -4 4 -10z m4650 0 c-3 -5 -11 -10 -16 -10 -6 0 -7 5 -4 10 3 6 11 10
16 10 6 0 7 -4 4 -10z m-7935 -20 c0 -5 -7 -10 -15 -10 -8 0 -15 5 -15 10 0 6
7 10 15 10 8 0 15 -4 15 -10z m7645 -31 c4 -5 -5 -28 -20 -49 -31 -45 -28 -67
11 -72 15 -2 33 -12 41 -24 12 -19 11 -24 -5 -45 -38 -46 -127 -18 -153 49
-14 36 7 96 42 126 31 27 73 34 84 15z m-850 -49 c3 -5 -3 -10 -14 -10 -12 0
-21 5 -21 10 0 6 6 10 14 10 8 0 18 -4 21 -10z m-4185 -45 c-21 -26 -31 -16
-13 11 9 15 19 21 21 15 2 -6 -2 -18 -8 -26z m4660 0 c-21 -26 -31 -16 -13 11
9 15 19 21 21 15 2 -6 -2 -18 -8 -26z m-1020 5 c0 -5 -8 -10 -17 -10 -15 0
-16 2 -3 10 19 12 20 12 20 0z m-5214 -47 c-11 -11 -17 4 -9 23 7 18 8 18 11
1 2 -10 1 -21 -2 -24z m4660 0 c-11 -11 -17 4 -9 23 7 18 8 18 11 1 2 -10 1
-21 -2 -24z m-2991 -58 c33 -9 66 -22 75 -29 8 -7 20 -11 27 -9 14 5 150 -40
206 -69 43 -22 55 -42 37 -64 -17 -19 -78 -11 -182 26 -52 18 -74 22 -71 13 3
-7 0 -13 -6 -13 -6 0 -11 7 -11 15 0 17 -66 49 -139 67 -25 6 -48 14 -51 18
-10 13 -203 -10 -328 -39 -159 -37 -252 -54 -260 -47 -8 9 -6 9 98 46 93 32
129 50 100 50 -11 0 -11 3 -2 12 10 10 15 10 21 -1 7 -11 16 -11 52 3 104 38
153 46 264 42 61 -3 137 -12 170 -21z m60 15 c-3 -5 -10 -10 -16 -10 -5 0 -9
5 -9 10 0 6 7 10 16 10 8 0 12 -4 9 -10z m4660 0 c-3 -5 -10 -10 -16 -10 -5 0
-9 5 -9 10 0 6 7 10 16 10 8 0 12 -4 9 -10z m-545 -45 c0 -9 -6 -12 -15 -9 -8
4 -12 10 -9 15 8 14 24 10 24 -6z m-1100 -55 c0 -5 -5 -10 -11 -10 -5 0 -7 5
-4 10 3 6 8 10 11 10 2 0 4 -4 4 -10z m-4376 -22 c9 -12 16 -33 16 -45 0 -32
-35 -30 -56 2 -9 14 -22 25 -30 25 -20 0 -28 21 -13 31 26 16 67 10 83 -13z
m-566 -4 c44 -30 27 -39 -78 -39 -90 -1 -100 1 -100 17 0 10 10 23 23 28 37
15 130 12 155 -6z m5633 -12 c89 -57 142 -144 143 -237 1 -53 -1 -60 -18 -60
-16 0 -23 13 -36 65 -19 82 -55 142 -114 198 -26 24 -44 48 -41 53 9 14 17 11
66 -19z m932 -6 c22 -11 41 -25 44 -33 12 -31 -13 -35 -107 -17 -112 20 -184
15 -299 -21 -45 -15 -85 -24 -88 -21 -20 20 57 67 162 98 81 24 234 21 288 -6z
m57 -8 c0 -5 -4 -8 -10 -8 -5 0 -10 10 -10 23 0 18 2 19 10 7 5 -8 10 -18 10
-22z m-1776 -47 c69 -33 116 -82 116 -119 0 -36 -31 -26 -95 28 -61 52 -119
76 -205 86 -69 8 -90 14 -90 24 0 13 46 19 131 15 61 -2 90 -9 143 -34z
m-3694 -20 c0 -12 -20 -25 -27 -18 -7 7 6 27 18 27 5 0 9 -4 9 -9z m4660 0 c0
-12 -20 -25 -27 -18 -7 7 6 27 18 27 5 0 9 -4 9 -9z m-2020 -31 c0 -14 -15
-19 -29 -10 -17 10 -5 31 14 23 8 -3 15 -9 15 -13z m3059 -45 c21 -20 22 -26
11 -39 -17 -21 -20 -20 -58 15 -21 19 -31 36 -28 45 8 20 43 10 75 -21z
m-7080 -16 c-15 -9 -32 -2 -24 11 3 5 13 6 21 3 12 -4 13 -8 3 -14z m4660 0
c-15 -9 -32 -2 -24 11 3 5 13 6 21 3 12 -4 13 -8 3 -14z m-699 -30 c0 -5 -4
-9 -10 -9 -5 0 -10 7 -10 16 0 8 5 12 10 9 6 -3 10 -10 10 -16z m-3270 -13 c0
-28 36 -57 85 -70 38 -9 51 -17 53 -33 4 -27 -26 -38 -75 -28 -50 9 -80 31
-92 67 -17 50 -14 78 9 78 11 0 20 -6 20 -14z m6574 -122 c8 -22 -13 -63 -47
-88 -25 -19 -28 -19 -44 -4 -15 15 -13 19 21 51 20 19 36 39 36 46 0 17 27 13
34 -5z m-5109 -20 c9 -9 15 -26 13 -38 -2 -16 -10 -21 -33 -22 -16 0 -40 -5
-51 -12 -42 -23 -47 19 -7 60 30 32 54 35 78 12z m305 6 c0 -5 -2 -10 -4 -10
-3 0 -8 5 -11 10 -3 6 -1 10 4 10 6 0 11 -4 11 -10z m4660 0 c0 -5 -2 -10 -4
-10 -3 0 -8 5 -11 10 -3 6 -1 10 4 10 6 0 11 -4 11 -10z m-5150 -110 c0 -5 -2
-10 -4 -10 -3 0 -8 5 -11 10 -3 6 -1 10 4 10 6 0 11 -4 11 -10z m-342 -22 c21
-21 14 -92 -16 -149 -56 -107 -162 -158 -349 -167 -100 -4 -103 -4 -103 17 0
11 -4 21 -10 21 -5 0 -10 -7 -10 -15 0 -20 -28 -19 -152 5 -142 27 -252 61
-236 72 10 6 10 10 -2 18 -19 13 -40 13 -40 0 0 -5 5 -10 12 -10 6 0 9 -2 6
-5 -16 -16 -338 151 -338 175 0 5 28 -3 63 -17 223 -91 573 -167 777 -167 115
0 186 17 251 61 34 22 46 42 83 136 16 38 41 48 64 25z m802 2 c0 -5 -4 -10
-9 -10 -6 0 -13 5 -16 10 -3 6 1 10 9 10 9 0 16 -4 16 -10z m4660 0 c0 -5 -4
-10 -9 -10 -6 0 -13 5 -16 10 -3 6 1 10 9 10 9 0 16 -4 16 -10z m-3840 -25 c0
-8 -4 -15 -9 -15 -13 0 -22 16 -14 24 11 11 23 6 23 -9z m-2427 -35 c3 -11 1
-20 -4 -20 -5 0 -9 9 -9 20 0 11 2 20 4 20 2 0 6 -9 9 -20z m3142 -30 c3 -5
-3 -10 -15 -10 -12 0 -18 5 -15 10 3 6 10 10 15 10 5 0 12 -4 15 -10z m-1805
-90 c0 -25 5 -31 33 -38 42 -11 45 -45 4 -50 -41 -5 -77 22 -77 57 0 39 9 61
26 61 9 0 14 -11 14 -30z m850 -94 c0 -2 -7 -7 -16 -10 -8 -3 -12 -2 -9 4 6
10 25 14 25 6z m1680 -36 c0 -5 -4 -10 -9 -10 -6 0 -13 5 -16 10 -3 6 1 10 9
10 9 0 16 -4 16 -10z m-905 -80 c-3 -5 -10 -10 -16 -10 -5 0 -9 5 -9 10 0 6 7
10 16 10 8 0 12 -4 9 -10z m2595 -90 c0 -5 -9 -10 -21 -10 -11 0 -17 5 -14 10
3 6 13 10 21 10 8 0 14 -4 14 -10z m-1165 -80 c-3 -5 -13 -10 -21 -10 -8 0
-12 5 -9 10 3 6 13 10 21 10 8 0 12 -4 9 -10z m72 -26 c-3 -3 -12 -4 -19 -1
-8 3 -5 6 6 6 11 1 17 -2 13 -5z m1103 -85 c0 -8 5 -8 15 1 17 15 19 7 5 -21
-15 -28 -40 -24 -40 6 0 14 5 25 10 25 6 0 10 -5 10 -11z m-4161 -150 c-22
-14 -33 -10 -19 6 7 8 17 12 22 9 6 -4 5 -10 -3 -15z m4660 0 c-22 -14 -33
-10 -19 6 7 8 17 12 22 9 6 -4 5 -10 -3 -15z m-1049 -39 c0 -5 -7 -10 -16 -10
-8 0 -12 5 -9 10 3 6 10 10 16 10 5 0 9 -4 9 -10z m910 -19 c0 -13 -26 -32
-33 -24 -8 7 11 33 24 33 5 0 9 -4 9 -9z m-2753 -94 c31 -39 78 -66 129 -74
40 -7 50 -12 52 -31 3 -20 -1 -22 -39 -22 -63 0 -123 33 -158 87 -17 26 -31
50 -31 55 0 16 29 7 47 -15z m758 -45 c-8 -8 -25 10 -25 26 0 13 2 13 14 -4 8
-10 13 -21 11 -22z m1765 -18 c0 -10 -33 -33 -47 -34 -7 0 -13 6 -13 14 0 8 6
17 13 19 18 8 47 8 47 1z m-2678 -20 c8 -8 -20 -97 -36 -113 -16 -16 -36 -7
-36 16 0 34 24 92 39 96 26 7 27 7 33 1z m1665 -70 c16 -41 -73 -64 -362 -93
-339 -33 -486 -37 -470 -11 2 4 42 11 87 14 46 4 128 14 183 22 55 9 116 16
135 16 19 0 40 3 45 7 8 6 69 21 230 54 11 3 48 5 83 6 49 1 64 -3 69 -15z
m88 -34 c-3 -5 -10 -10 -16 -10 -5 0 -9 5 -9 10 0 6 7 10 16 10 8 0 12 -4 9
-10z m-1495 -95 c0 -23 -46 -48 -76 -41 -29 8 -27 32 3 28 11 -1 26 4 33 13
16 19 40 20 40 0z"/>
<path d="M5760 10215 c-7 -9 -10 -18 -7 -22 8 -7 37 15 37 28 0 14 -16 11 -30
-6z"/>
<path d="M9120 9971 c0 -11 26 -22 34 -14 3 3 3 10 0 14 -7 12 -34 11 -34 0z"/>
<path d="M10367 9953 c-15 -14 -6 -23 18 -17 19 5 25 2 25 -11 0 -24 32 -15
36 11 3 18 -2 21 -35 22 -21 1 -41 -1 -44 -5z"/>
<path d="M6034 9939 c-3 -6 -1 -16 5 -22 8 -8 11 -5 11 11 0 24 -5 28 -16 11z"/>
<path d="M6830 9890 c0 -5 4 -10 9 -10 6 0 13 5 16 10 3 6 -1 10 -9 10 -9 0
-16 -4 -16 -10z"/>
<path d="M6597 9883 c-11 -10 -8 -43 3 -43 6 0 10 11 10 25 0 26 -2 29 -13 18z"/>
<path d="M5320 9860 c0 -5 9 -10 21 -10 11 0 17 5 14 10 -3 6 -13 10 -21 10
-8 0 -14 -4 -14 -10z"/>
<path d="M9985 9850 c-4 -6 -3 -16 3 -22 6 -6 12 -6 17 2 4 6 3 16 -3 22 -6 6
-12 6 -17 -2z"/>
<path d="M11520 9820 c0 -5 11 -10 25 -10 14 0 25 5 25 10 0 6 -11 10 -25 10
-14 0 -25 -4 -25 -10z"/>
<path d="M4818 9753 c-16 -2 -28 -9 -28 -14 0 -15 56 -10 70 6 13 16 13 16
-42 8z"/>
<path d="M12188 9753 c-16 -2 -28 -9 -28 -14 0 -15 56 -10 70 6 13 16 13 16
-42 8z"/>
<path d="M7225 9710 c-3 -6 0 -12 7 -15 21 -8 67 -1 68 10 0 13 -67 18 -75 5z"/>
<path d="M11635 9630 c3 -5 10 -10 16 -10 5 0 9 5 9 10 0 6 -7 10 -16 10 -8 0
-12 -4 -9 -10z"/>
<path d="M8145 9611 c-3 -5 -1 -12 4 -15 13 -8 42 4 35 15 -7 12 -31 12 -39 0z"/>
<path d="M6310 9600 c0 -5 5 -10 10 -10 6 0 10 5 10 10 0 6 -4 10 -10 10 -5 0
-10 -4 -10 -10z"/>
<path d="M8547 9582 c-20 -22 -21 -34 -4 -51 6 -6 12 -24 12 -38 0 -14 6 -28
13 -30 6 -3 12 3 12 14 0 10 7 31 15 47 19 37 19 39 -5 33 -17 -4 -19 -1 -14
19 7 29 -6 31 -29 6z"/>
<path d="M5434 9565 c-15 -11 -16 -14 -4 -15 21 0 44 16 33 23 -6 4 -19 0 -29
-8z"/>
<path d="M8648 9540 c-11 -13 -14 -22 -7 -26 16 -10 58 16 52 32 -7 19 -24 16
-45 -6z"/>
<path d="M5461 9504 c0 -11 3 -14 6 -6 3 7 2 16 -1 19 -3 4 -6 -2 -5 -13z"/>
<path d="M8120 9491 c0 -12 39 -25 48 -16 7 7 -17 25 -35 25 -7 0 -13 -4 -13
-9z"/>
<path d="M8290 9490 c0 -5 5 -10 10 -10 6 0 10 5 10 10 0 6 -4 10 -10 10 -5 0
-10 -4 -10 -10z"/>
<path d="M5310 9481 c0 -10 42 -23 49 -15 7 6 -20 24 -36 24 -7 0 -13 -4 -13
-9z"/>
<path d="M9821 9481 c-23 -15 2 -18 39 -5 l35 13 -30 0 c-16 1 -36 -3 -44 -8z"/>
<path d="M10269 9454 c-11 -14 -10 -15 11 -12 13 1 25 9 28 16 5 17 -23 15
-39 -4z"/>
<path d="M9950 9440 c0 -5 11 -10 25 -10 14 0 25 5 25 10 0 6 -11 10 -25 10
-14 0 -25 -4 -25 -10z"/>
<path d="M10305 9410 c3 -5 11 -10 16 -10 6 0 7 5 4 10 -3 6 -11 10 -16 10 -6
0 -7 -4 -4 -10z"/>
<path d="M9630 9400 c0 -6 7 -13 15 -16 8 -4 15 -15 15 -25 0 -10 5 -19 10
-19 16 0 12 37 -6 54 -18 18 -34 21 -34 6z"/>
<path d="M9865 9370 c-4 -6 5 -10 19 -10 14 0 26 5 26 10 0 6 -9 10 -19 10
-11 0 -23 -4 -26 -10z"/>
<path d="M11261 9356 c-8 -10 -9 -16 -1 -21 13 -8 30 3 30 21 0 18 -14 18 -29
0z"/>
<path d="M10395 9350 c4 -6 11 -8 16 -5 14 9 11 15 -7 15 -8 0 -12 -5 -9 -10z"/>
<path d="M7737 9334 c-4 -4 -7 -17 -7 -28 1 -19 1 -20 11 -3 11 19 8 43 -4 31z"/>
<path d="M6645 9310 c-3 -5 3 -10 15 -10 12 0 18 5 15 10 -3 6 -10 10 -15 10
-5 0 -12 -4 -15 -10z"/>
<path d="M11707 9314 c-9 -9 -9 -58 -1 -67 11 -11 49 14 61 40 16 32 8 43 -14
20 -15 -14 -18 -14 -27 -1 -7 8 -15 12 -19 8z"/>
<path d="M6954 9255 c-9 -14 -14 -29 -10 -32 7 -7 56 36 56 49 0 18 -31 7 -46
-17z"/>
<path d="M9585 9270 c3 -5 8 -10 11 -10 2 0 4 5 4 10 0 6 -5 10 -11 10 -5 0
-7 -4 -4 -10z"/>
<path d="M4960 9245 c-7 -9 -10 -18 -7 -21 9 -9 48 16 42 27 -9 13 -21 11 -35
-6z"/>
<path d="M6106 9241 c-10 -11 -13 -22 -8 -25 5 -3 17 3 26 13 10 11 13 22 8
25 -5 3 -17 -3 -26 -13z"/>
<path d="M6825 9250 c-3 -5 -3 -15 1 -21 6 -11 23 6 24 24 0 10 -18 9 -25 -3z"/>
<path d="M5880 9210 c0 -5 5 -10 10 -10 6 0 10 5 10 10 0 6 -4 10 -10 10 -5 0
-10 -4 -10 -10z"/>
<path d="M7974 9205 c-9 -22 -2 -26 35 -19 37 8 36 28 -2 32 -18 2 -29 -2 -33
-13z"/>
<path d="M9585 9164 c-17 -26 -15 -41 4 -29 6 3 15 15 21 25 16 30 -6 33 -25
4z"/>
<path d="M7157 9134 c-12 -12 4 -24 34 -24 19 0 29 5 29 15 0 15 -50 22 -63 9z"/>
<path d="M9160 9008 c0 -14 28 -21 55 -14 38 10 30 21 -15 21 -22 1 -40 -3
-40 -7z"/>
<path d="M6225 8350 c3 -5 8 -10 11 -10 2 0 4 5 4 10 0 6 -5 10 -11 10 -5 0
-7 -4 -4 -10z"/>
<path d="M8950 8080 c0 -5 9 -10 20 -10 11 0 20 5 20 10 0 6 -9 10 -20 10 -11
0 -20 -4 -20 -10z"/>
<path d="M5846 8015 c-3 -8 -1 -15 3 -15 5 0 11 7 15 15 3 8 1 15 -3 15 -5 0
-11 -7 -15 -15z"/>
<path d="M5442 7588 c5 -15 28 -18 29 -3 0 6 -7 12 -17 13 -10 3 -15 -1 -12
-10z"/>
<path d="M6683 7573 c-24 -9 -13 -25 12 -19 18 5 25 2 25 -9 0 -8 9 -15 20
-15 18 0 25 16 18 37 -4 9 -58 13 -75 6z"/>
<path d="M9008 7473 c6 -2 18 -2 25 0 6 3 1 5 -13 5 -14 0 -19 -2 -12 -5z"/>
<path d="M4862 7198 c-15 -15 -16 -58 -2 -58 6 0 10 -13 10 -30 0 -20 5 -30
15 -30 10 0 15 10 15 29 0 16 7 34 15 41 11 9 13 16 6 23 -7 7 -15 6 -26 -3
-9 -8 -15 -8 -15 -2 0 6 5 14 10 17 6 3 10 10 10 16 0 13 -24 11 -38 -3z"/>
<path d="M4967 7158 c-23 -24 -16 -33 18 -24 17 4 25 12 23 23 -4 24 -20 24
-41 1z"/>
<path d="M7437 7050 c-158 -40 -278 -188 -284 -348 -1 -39 -5 -77 -9 -84 -5
-7 -2 -9 8 -5 11 4 24 -7 43 -36 15 -23 39 -53 54 -66 63 -58 212 -98 312 -85
l49 7 25 81 c76 251 68 424 -23 510 -25 23 -42 30 -84 32 -29 2 -70 -1 -91 -6z
m-147 -314 c0 -3 -4 -8 -10 -11 -5 -3 -10 -1 -10 4 0 6 5 11 10 11 6 0 10 -2
10 -4z m-30 -86 c-19 -12 -30 -12 -30 -1 0 10 31 20 40 14 2 -2 -2 -8 -10 -13z"/>
<path d="M8645 6859 c-4 -6 -5 -12 -2 -15 7 -7 37 7 37 17 0 13 -27 11 -35 -2z"/>
<path d="M8330 6850 c0 -5 9 -10 20 -10 11 0 20 5 20 10 0 6 -9 10 -20 10 -11
0 -20 -4 -20 -10z"/>
<path d="M8456 6831 c-4 -5 -2 -12 3 -15 5 -4 12 -2 15 3 4 5 2 12 -3 15 -5 4
-12 2 -15 -3z"/>
<path d="M8230 6475 c0 -10 7 -15 18 -13 21 4 19 22 -2 26 -10 2 -16 -3 -16
-13z"/>
<path d="M5040 6430 c0 -5 16 -10 35 -10 19 0 35 5 35 10 0 6 -16 10 -35 10
-19 0 -35 -4 -35 -10z"/>
<path d="M6872 6338 c-50 -166 -65 -256 -60 -376 5 -122 24 -174 80 -213 47
-34 142 -38 201 -10 103 50 260 212 366 376 l51 80 -72 7 c-163 17 -319 80
-459 186 -39 28 -72 52 -73 52 -2 0 -17 -46 -34 -102z m148 -528 c0 -5 -4 -10
-10 -10 -5 0 -10 5 -10 10 0 6 5 10 10 10 6 0 10 -4 10 -10z"/>
<path d="M7670 6391 c0 -5 10 -11 23 -15 36 -9 43 -6 23 9 -22 17 -46 20 -46
6z"/>
<path d="M8461 6328 c-13 -16 -21 -32 -17 -35 7 -7 34 14 47 38 16 30 -5 28
-30 -3z"/>
<path d="M8164 6325 c-15 -39 24 -46 60 -10 l25 25 -40 0 c-25 0 -42 -5 -45
-15z"/>
<path d="M8250 6260 c0 -19 3 -21 12 -12 9 9 9 15 0 24 -9 9 -12 7 -12 -12z"/>
<path d="M8442 6207 c-14 -33 -30 -57 -39 -57 -10 0 -12 -6 -8 -20 5 -15 -5
-50 -20 -68 -1 -1 -14 2 -28 7 -17 7 -28 7 -32 1 -4 -6 7 -13 24 -16 17 -4 31
-8 31 -9 0 -1 -21 -47 -46 -101 -96 -207 -174 -416 -174 -467 0 -20 0 -20 24
2 81 76 208 295 250 429 28 90 49 240 44 311 l-3 45 -23 -57z"/>
<path d="M5120 6200 c0 -5 5 -10 10 -10 6 0 10 5 10 10 0 6 -4 10 -10 10 -5 0
-10 -4 -10 -10z"/>
<path d="M6753 6148 c2 -7 10 -13 17 -13 7 0 15 6 18 13 2 7 -5 12 -18 12 -13
0 -20 -5 -17 -12z"/>
<path d="M6490 5870 c0 -5 7 -10 16 -10 8 0 12 5 9 10 -3 6 -10 10 -16 10 -5
0 -9 -4 -9 -10z"/>
<path d="M7460 5830 c-8 -5 -12 -12 -8 -15 9 -9 48 4 48 16 0 12 -21 11 -40
-1z"/>
<path d="M6041 5517 c-22 -11 -31 -29 -13 -26 19 4 52 23 52 31 0 11 -11 10
-39 -5z"/>
<path d="M5760 5445 c-7 -9 -10 -18 -7 -22 8 -7 37 15 37 28 0 14 -16 11 -30
-6z"/>
<path d="M2100 8175 c-19 -23 -2 -37 20 -15 11 11 20 22 20 25 0 11 -28 4 -40
-10z"/>
<path d="M4610 7099 c0 -5 5 -7 10 -4 6 3 10 8 10 11 0 2 -4 4 -10 4 -5 0 -10
-5 -10 -11z"/>
<path d="M11145 8217 c-12 -10 -14 -16 -7 -21 13 -8 52 10 52 24 0 14 -23 12
-45 -3z"/>
<path d="M9853 8163 c-48 -6 -49 -29 -3 -58 56 -35 90 -32 69 6 -7 15 -6 21 6
25 8 3 15 12 15 20 0 14 -18 15 -87 7z"/>
<path d="M10960 7996 c0 -16 24 -39 32 -30 3 3 4 14 1 25 -6 22 -33 26 -33 5z"/>
<path d="M9712 7898 c-13 -13 -16 -28 -4 -28 4 0 18 9 32 20 23 18 24 20 5 20
-12 0 -26 -5 -33 -12z"/>
<path d="M11450 7731 c0 -12 48 -27 57 -17 9 8 2 13 -30 21 -17 5 -27 3 -27
-4z"/>
<path d="M12090 7620 c0 -5 5 -10 10 -10 6 0 10 5 10 10 0 6 -4 10 -10 10 -5
0 -10 -4 -10 -10z"/>
<path d="M12810 7591 c0 -14 18 -23 31 -15 8 4 7 9 -2 15 -18 11 -29 11 -29 0z"/>
<path d="M9720 7551 c0 -12 5 -21 10 -21 6 0 10 6 10 14 0 8 -4 18 -10 21 -5
3 -10 -3 -10 -14z"/>
<path d="M9565 6830 c3 -5 8 -10 11 -10 2 0 4 5 4 10 0 6 -5 10 -11 10 -5 0
-7 -4 -4 -10z"/>
<path d="M9503 6546 c-6 -8 -9 -17 -6 -20 7 -7 33 13 33 25 0 13 -13 10 -27
-5z"/>
<path d="M9255 6070 c3 -5 17 -10 30 -10 13 0 27 5 30 10 4 6 -8 10 -30 10
-22 0 -34 -4 -30 -10z"/>
<path d="M9070 5398 c-172 -384 -219 -502 -234 -588 l-7 -35 42 45 c108 116
216 322 248 477 18 82 37 263 28 263 -2 0 -37 -73 -77 -162z"/>
<path d="M9185 5400 c3 -5 8 -10 11 -10 2 0 4 5 4 10 0 6 -5 10 -11 10 -5 0
-7 -4 -4 -10z"/>
<path d="M9120 5200 c0 -5 9 -10 20 -10 11 0 20 5 20 10 0 6 -9 10 -20 10 -11
0 -20 -4 -20 -10z"/>
<path d="M8547 4812 c-20 -22 -21 -34 -5 -50 7 -7 12 -24 13 -39 0 -29 25 -46
25 -16 0 10 7 31 15 47 19 36 19 39 -3 34 -15 -4 -18 -1 -14 18 5 29 -9 31
-31 6z"/>
<path d="M8652 4775 c-27 -28 -12 -44 24 -24 27 14 30 22 11 37 -9 8 -18 4
-35 -13z"/>
<path d="M6045 7890 c-3 -5 -2 -10 4 -10 5 0 13 5 16 10 3 6 2 10 -4 10 -5 0
-13 -4 -16 -10z"/>
<path d="M10150 6579 c0 -5 5 -7 10 -4 6 3 10 8 10 11 0 2 -4 4 -10 4 -5 0
-10 -5 -10 -11z"/>
<path d="M11660 6510 c0 -5 14 -10 30 -10 17 0 30 5 30 10 0 6 -13 10 -30 10
-16 0 -30 -4 -30 -10z"/>
<path d="M10747 6504 c-12 -12 -8 -21 11 -28 9 -3 22 -8 27 -11 6 -3 11 4 12
15 1 11 -2 20 -7 20 -5 0 -15 2 -22 5 -8 3 -17 2 -21 -1z"/>
<path d="M10535 6392 c-60 -32 -130 -71 -155 -89 -60 -41 -195 -184 -245 -258
-22 -33 -48 -66 -57 -73 -10 -7 -18 -21 -18 -31 0 -10 -11 -44 -25 -75 -14
-31 -25 -59 -25 -61 0 -17 252 102 330 155 92 63 206 175 263 260 28 41 55 78
61 82 8 5 7 8 -1 8 -9 0 -10 7 -3 26 15 37 13 114 -2 114 -7 0 -62 -26 -123
-58z"/>
<path d="M11272 6428 c-14 -14 -16 -38 -3 -38 5 0 14 7 21 15 7 8 19 15 26 15
8 0 14 5 14 10 0 14 -43 13 -58 -2z"/>
<path d="M11757 6346 c-159 -106 -259 -193 -351 -308 -55 -68 -136 -201 -136
-222 0 -9 94 30 185 76 245 124 454 362 443 505 l-3 40 -138 -91z"/>
<path d="M11333 6295 c-8 -23 1 -27 30 -12 28 15 26 27 -5 27 -10 0 -21 -7
-25 -15z"/>
<path d="M9908 5963 c7 -3 16 -2 19 1 4 3 -2 6 -13 5 -11 0 -14 -3 -6 -6z"/>
<path d="M9540 5635 c-7 -9 -10 -18 -7 -21 3 -3 10 4 17 15 13 25 8 27 -10 6z"/>
<path d="M9730 5500 c0 -5 7 -7 15 -4 8 4 15 8 15 10 0 2 -7 4 -15 4 -8 0 -15
-4 -15 -10z"/>
<path d="M11060 5349 c0 -5 5 -7 10 -4 6 3 10 8 10 11 0 2 -4 4 -10 4 -5 0
-10 -5 -10 -11z"/>
<path d="M11978 5303 c-7 -16 -23 -32 -36 -38 -22 -10 -31 -35 -11 -35 19 0
69 58 69 79 0 28 -6 26 -22 -6z"/>
<path d="M9580 5281 c13 -10 99 -16 89 -7 -2 2 -26 6 -54 10 -36 5 -46 4 -35
-3z"/>
<path d="M10367 5183 c-15 -14 -6 -23 18 -17 19 5 25 2 25 -11 0 -25 32 -14
36 13 3 20 0 22 -34 22 -21 0 -42 -3 -45 -7z"/>
<path d="M9985 5080 c-4 -6 -3 -16 3 -22 6 -6 12 -6 17 2 4 6 3 16 -3 22 -6 6
-12 6 -17 -2z"/>
<path d="M11520 5050 c0 -5 11 -10 25 -10 14 0 25 5 25 10 0 6 -11 10 -25 10
-14 0 -25 -4 -25 -10z"/>
<path d="M7225 4940 c-3 -5 0 -12 7 -15 21 -7 67 -1 70 10 4 14 -68 19 -77 5z"/>
<path d="M5461 4734 c0 -11 3 -14 6 -6 3 7 2 16 -1 19 -3 4 -6 -2 -5 -13z"/>
<path d="M6645 4540 c-3 -5 3 -10 15 -10 12 0 18 5 15 10 -3 6 -10 10 -15 10
-5 0 -12 -4 -15 -10z"/>
<path d="M6954 4485 c-9 -14 -14 -28 -11 -31 7 -7 66 37 66 49 2 18 -40 5 -55
-18z"/>
<path d="M6820 4469 c0 -24 23 -21 28 4 2 10 -3 17 -12 17 -10 0 -16 -9 -16
-21z"/>
<path d="M7157 4364 c-12 -12 4 -24 34 -24 19 0 29 5 29 15 0 15 -50 22 -63 9z"/>
<path d="M9376 4154 c-9 -23 3 -32 17 -13 7 9 19 18 27 22 9 3 5 6 -11 6 -16
1 -29 -6 -33 -15z"/>
<path d="M7597 4048 c-9 -5 -17 -18 -17 -30 0 -20 1 -20 18 -5 10 10 24 17 30
17 7 0 12 4 12 9 0 14 -25 20 -43 9z"/>
<path d="M8737 4054 c-16 -16 -5 -25 26 -22 17 2 31 8 30 13 -3 12 -46 19 -56
9z"/>
<path d="M10576 4020 c-146 -93 -288 -262 -349 -417 l-17 -42 27 10 c14 5 67
31 117 57 71 36 109 65 176 132 98 98 141 169 143 238 2 43 0 47 -23 50 -15 2
-45 -10 -74 -28z m-26 -120 c0 -5 -2 -10 -4 -10 -3 0 -8 5 -11 10 -3 6 -1 10
4 10 6 0 11 -4 11 -10z"/>
<path d="M7657 3923 c-11 -10 -8 -43 3 -43 6 0 10 5 10 10 0 6 10 10 21 10 18
0 19 2 9 15 -13 16 -32 19 -43 8z"/>
<path d="M9657 3903 c-4 -3 -7 -18 -7 -32 0 -28 14 -19 25 17 6 21 -4 30 -18
15z"/>
<path d="M8805 3810 c4 -6 11 -8 16 -5 14 9 11 15 -7 15 -8 0 -12 -5 -9 -10z"/>
<path d="M10175 3480 c3 -5 10 -10 16 -10 5 0 9 5 9 10 0 6 -7 10 -16 10 -8 0
-12 -4 -9 -10z"/>
<path d="M7915 3410 c-10 -16 15 -41 39 -38 32 5 28 42 -6 46 -14 2 -29 -2
-33 -8z"/>
<path d="M9472 3408 c-12 -12 -17 -38 -7 -38 3 0 14 9 25 20 11 11 20 22 20
25 0 10 -26 5 -38 -7z"/>
<path d="M9850 3391 c-39 -11 -35 -34 11 -64 38 -25 44 -26 57 -13 12 12 13
18 3 29 -9 12 -7 16 10 20 12 3 19 12 17 19 -5 15 -60 20 -98 9z"/>
<path d="M8952 3309 c2 -6 7 -10 11 -10 4 1 15 1 25 1 14 0 15 2 2 10 -20 13
-43 13 -38 -1z"/>
<path d="M7730 3264 c0 -14 4 -23 10 -19 6 3 10 15 10 26 0 10 -4 19 -10 19
-5 0 -10 -12 -10 -26z"/>
<path d="M7850 3272 c0 -12 19 -26 26 -19 2 2 -2 10 -11 17 -9 8 -15 8 -15 2z"/>
<path d="M9714 3126 c-10 -8 -16 -17 -13 -21 8 -7 59 15 59 27 0 13 -24 10
-46 -6z"/>
<path d="M9446 3061 c-20 -22 -20 -31 -1 -31 17 0 39 36 26 44 -4 3 -16 -3
-25 -13z"/>
<path d="M7737 4564 c-4 -4 -7 -17 -7 -28 1 -19 1 -20 11 -3 11 19 8 43 -4 31z"/>
<path d="M8334 1005 c5 -20 3 -25 -13 -25 -28 0 -37 -20 -9 -20 17 -1 14 -4
-15 -14 -45 -17 -65 -32 -89 -71 -19 -32 -25 -27 -7 7 15 28 3 35 -22 13 -17
-16 -22 -17 -29 -5 -5 8 -13 11 -17 6 -4 -4 0 -13 10 -20 9 -7 17 -25 17 -40
0 -29 16 -35 23 -8 3 9 5 -2 6 -24 1 -40 2 -42 39 -48 92 -15 191 -1 274 39
32 16 35 21 27 41 -6 17 -5 23 4 21 8 -1 11 8 9 26 -2 16 2 35 9 43 6 8 9 18
5 22 -4 4 -12 -1 -17 -10 -8 -15 -13 -16 -29 -6 -28 18 -37 2 -14 -24 10 -12
2 -8 -19 10 -36 30 -50 36 -107 45 -20 3 -18 5 8 6 35 1 36 21 1 21 -16 0 -19
5 -14 20 5 16 2 20 -15 20 -19 0 -21 -4 -16 -25z m-6 -117 c7 -7 12 -24 12
-38 0 -48 -45 -67 -82 -33 -22 20 -23 41 -1 65 18 21 53 24 71 6z m147 -18 c0
-18 -6 -26 -23 -28 -13 -2 -25 3 -28 12 -10 26 4 48 28 44 17 -2 23 -10 23
-28z"/>
<path d="M6230 895 c0 -42 -11 -58 -25 -35 -8 13 -61 13 -84 0 -27 -14 -44
-65 -38 -107 12 -70 73 -104 124 -68 19 13 22 13 27 0 7 -20 32 -19 40 1 3 9
6 62 6 119 0 117 -4 135 -31 135 -16 0 -19 -8 -19 -45z m-22 -77 c7 -7 12 -28
12 -48 0 -39 -14 -60 -41 -60 -24 0 -42 26 -42 60 0 50 41 78 71 48z"/>
<path d="M6696 931 c-10 -16 5 -42 23 -39 21 4 21 42 -1 46 -9 2 -19 -1 -22
-7z"/>
<path d="M7537 934 c-4 -4 -7 -25 -7 -46 0 -35 -2 -38 -19 -28 -78 41 -154
-46 -117 -134 22 -53 87 -76 117 -40 11 14 13 14 21 0 13 -23 37 -19 43 7 3
12 5 71 3 132 -2 90 -6 110 -18 113 -9 1 -19 0 -23 -4z m-17 -136 c13 -25 13
-31 0 -55 -30 -54 -80 -37 -80 26 0 65 50 82 80 29z"/>
<path d="M7686 924 c-10 -25 -7 -228 4 -244 8 -13 13 -13 31 -2 15 10 24 11
32 3 20 -20 72 -12 98 15 19 20 24 37 24 74 0 61 -32 100 -81 100 -18 0 -36
-4 -39 -10 -14 -23 -25 -7 -25 35 0 37 -3 45 -19 45 -10 0 -22 -7 -25 -16z
m123 -108 c17 -21 10 -87 -11 -100 -28 -17 -52 5 -56 48 -4 41 11 66 38 66 10
0 23 -6 29 -14z"/>
<path d="M8672 928 c-6 -6 -12 -22 -12 -34 0 -14 -8 -25 -20 -29 -26 -8 -26
-25 0 -32 17 -4 20 -15 22 -82 3 -68 5 -76 23 -76 18 0 20 8 23 76 2 67 5 78
22 82 26 7 26 27 0 34 -29 8 -24 31 8 35 16 2 27 9 27 18 0 19 -75 26 -93 8z"/>
<path d="M9517 926 c-7 -17 18 -40 33 -31 5 3 10 15 10 26 0 23 -35 27 -43 5z"/>
<path d="M9607 933 c-10 -10 -8 -236 2 -252 14 -23 41 -5 41 27 0 16 6 35 14
41 12 10 19 4 41 -33 15 -25 33 -46 41 -46 28 0 26 31 -4 80 l-30 48 24 23
c28 26 30 37 8 46 -10 4 -30 -8 -55 -33 l-39 -38 0 72 c0 63 -2 72 -18 72 -10
0 -22 -3 -25 -7z"/>
<path d="M6345 858 c-33 -19 -44 -41 -44 -88 0 -48 11 -70 46 -88 51 -27 133
-3 133 39 0 23 -22 25 -40 4 -24 -29 -90 -13 -90 22 0 9 18 13 64 13 70 0 83
11 66 54 -18 49 -87 71 -135 44z m83 -50 c3 -15 -4 -18 -37 -18 -43 0 -50 7
-29 28 18 18 62 11 66 -10z"/>
<path d="M6520 850 c-39 -39 -17 -78 52 -95 39 -10 54 -31 31 -43 -20 -11 -63
1 -63 18 0 5 -9 10 -20 10 -28 0 -26 -35 2 -54 33 -23 103 -21 128 4 11 11 20
29 20 39 0 24 -41 57 -80 66 -34 8 -48 24 -30 35 16 10 46 2 60 -15 13 -16 40
-9 40 11 0 41 -104 60 -140 24z"/>
<path d="M6696 855 c-9 -25 -7 -158 3 -174 5 -8 16 -11 25 -8 24 10 19 190 -5
195 -9 2 -19 -4 -23 -13z"/>
<path d="M6792 847 c-68 -72 -8 -198 80 -168 24 9 28 7 28 -9 0 -39 -52 -46
-92 -13 -18 16 -38 10 -38 -12 0 -43 117 -62 161 -26 22 18 24 28 27 123 3
116 -5 141 -39 120 -15 -10 -24 -11 -32 -3 -19 19 -72 13 -95 -12z m103 -41
c31 -47 -10 -110 -55 -86 -15 8 -20 21 -20 48 0 62 45 85 75 38z"/>
<path d="M6997 863 c-4 -3 -7 -46 -7 -95 0 -72 3 -90 16 -95 24 -9 34 15 34
79 0 48 3 59 21 68 37 21 49 6 49 -62 0 -70 10 -94 34 -85 25 10 23 158 -2
180 -22 20 -54 22 -85 6 -16 -9 -22 -9 -25 0 -4 12 -25 15 -35 4z"/>
<path d="M7223 855 c-12 -8 -27 -31 -33 -50 -14 -43 1 -97 33 -120 39 -27 127
-14 141 21 10 27 -10 41 -32 21 -33 -30 -92 -17 -92 20 0 9 18 13 65 13 l65 0
0 30 c0 66 -90 105 -147 65z m87 -29 c0 -2 3 -11 6 -20 5 -13 -2 -16 -35 -16
-44 0 -44 0 -35 24 5 14 64 24 64 12z"/>
<path d="M7883 855 c-3 -9 9 -53 26 -98 35 -90 33 -114 -7 -119 -42 -5 -34
-32 9 -36 48 -4 65 18 114 148 27 72 35 104 27 112 -19 19 -37 1 -55 -56 -16
-50 -37 -83 -37 -57 0 6 -9 35 -21 66 -20 54 -43 71 -56 40z"/>
<path d="M8764 857 c-3 -8 -4 -52 -2 -98 3 -76 5 -84 23 -84 17 0 20 8 23 50
4 87 8 95 48 95 31 0 35 3 32 23 -3 25 -41 36 -63 17 -9 -7 -15 -8 -20 0 -9
14 -35 13 -41 -3z"/>
<path d="M8933 860 c-30 -12 -43 -41 -43 -92 1 -46 12 -68 47 -86 51 -27 133
-3 133 39 0 23 -22 25 -40 4 -24 -29 -90 -13 -90 22 0 9 18 13 64 13 70 0 83
11 66 54 -18 48 -80 69 -137 46z m85 -52 c3 -15 -4 -18 -37 -18 -43 0 -50 7
-29 28 18 18 62 11 66 -10z"/>
<path d="M9119 841 c-64 -65 -20 -171 71 -171 31 0 47 6 67 26 33 33 17 56
-22 30 -35 -23 -76 -17 -86 12 -8 21 -7 22 56 22 69 0 80 8 71 45 -17 68 -105
88 -157 36z m99 -23 c21 -21 13 -28 -28 -28 -38 0 -52 14 -33 33 11 11 48 8
61 -5z"/>
<path d="M9307 863 c-4 -3 -7 -64 -7 -135 0 -119 1 -128 19 -128 22 0 31 19
31 63 0 24 3 28 12 19 13 -13 56 -16 83 -6 22 9 45 57 45 94 0 74 -52 115
-114 91 -20 -7 -32 -8 -34 -1 -4 11 -25 13 -35 3z m115 -50 c22 -20 23 -61 1
-85 -20 -22 -37 -23 -57 -2 -29 28 -14 104 21 104 9 0 25 -7 35 -17z"/>
<path d="M9516 854 c-3 -9 -6 -46 -6 -84 0 -77 6 -100 26 -100 22 0 34 35 34
100 0 65 -12 100 -34 100 -8 0 -17 -7 -20 -16z"/>
<path d="M9923 855 c-32 -23 -47 -77 -33 -120 14 -44 44 -65 91 -65 42 0 89
32 89 61 0 25 -32 25 -48 -1 -16 -26 -58 -26 -72 -1 -5 11 -10 33 -10 48 0 53
43 70 79 32 21 -23 51 -20 51 5 0 44 -102 73 -147 41z"/>
<path d="M10135 858 c-33 -19 -44 -41 -44 -88 0 -64 34 -100 94 -100 60 0 94
36 94 100 0 25 -5 52 -12 61 -28 37 -92 50 -132 27z m89 -60 c14 -40 -3 -82
-34 -86 -42 -6 -65 51 -39 99 16 30 61 22 73 -13z"/>
<path d="M10306 854 c-3 -9 -6 -51 -6 -95 0 -62 3 -81 15 -85 30 -12 45 15 45
83 0 48 4 65 15 69 29 12 44 -15 47 -84 3 -59 5 -67 23 -67 18 0 20 8 23 67 3
69 18 96 47 84 11 -4 15 -22 15 -76 0 -54 4 -72 15 -76 30 -12 45 15 45 81 0
96 -49 141 -110 103 -15 -10 -22 -10 -32 0 -15 15 -52 16 -78 2 -13 -7 -21 -7
-25 0 -9 15 -32 12 -39 -6z"/>
<path d="M8480 772 c-49 -24 -66 -27 -167 -27 -62 0 -113 -4 -113 -8 0 -18 35
-59 61 -73 32 -16 118 -18 169 -4 45 12 98 66 106 108 4 17 5 32 3 31 -2 0
-29 -13 -59 -27z"/>
<path d="M9810 715 c-16 -19 -5 -47 17 -43 22 4 29 43 9 51 -8 3 -20 -1 -26
-8z"/>
</g>
</svg>
