<?xml version="1.0" encoding="UTF-8" standalone="no"?>
<!-- Created with Inkscape (http://www.inkscape.org/) -->

<svg
   version="1.1"
   id="svg2708"
   width="335.45682"
   height="408.68713"
   viewBox="0 0 335.45682 408.68714"
   sodipodi:docname="Ring1c.svg"
   inkscape:version="1.3.2 (091e20ef0f, 2023-11-25)"
   xmlns:inkscape="http://www.inkscape.org/namespaces/inkscape"
   xmlns:sodipodi="http://sodipodi.sourceforge.net/DTD/sodipodi-0.dtd"
   xmlns="http://www.w3.org/2000/svg"
   xmlns:svg="http://www.w3.org/2000/svg">
  <defs
     id="defs2712" />
  <sodipodi:namedview
     id="namedview2710"
     pagecolor="#ffffff"
     bordercolor="#000000"
     borderopacity="0.25"
     inkscape:showpageshadow="2"
     inkscape:pageopacity="0.0"
     inkscape:pagecheckerboard="0"
     inkscape:deskcolor="#d1d1d1"
     showgrid="false"
     inkscape:zoom="1.7443821"
     inkscape:cx="147.61674"
     inkscape:cy="205.5169"
     inkscape:window-width="1920"
     inkscape:window-height="1011"
     inkscape:window-x="0"
     inkscape:window-y="0"
     inkscape:window-maximized="1"
     inkscape:current-layer="layer1"
     showguides="true" />
  <g
     inkscape:groupmode="layer"
     id="layer1"
     inkscape:label="Layer">
    <path
       style="display:inline;fill:#ff0000;stroke-width:1.33333"
       d="m 181.33334,107.78656 c 33.44692,-4.58734 73.17713,-20.261665 88.65616,-34.976542 8.79288,-8.358792 10.29517,-12.90674 5.84024,-17.68026 -11.92063,-12.773117 -50.26696,-18.18786 -80.63284,-11.385867 -24.00236,5.376558 -44.36376,15.420394 -59.39096,29.296276 -15.12343,13.964734 -19.60886,25.108237 -12.39159,30.785343 7.83697,6.16456 30.53487,7.71686 57.91899,3.96105 z"
       transform="translate(-81.333334,-32.2939)"
       id="path4" />
    <path
       style="fill:#ff5555;stroke-width:2.968"
       d="m 64.808497,54.164953 28.435032,9.407432 19.694921,-3.954659 45.15836,-19.251534 c 0,0 10.96377,-20.344328 8.31016,-20.830263 -2.65361,-0.485935 -32.98535,-8.361664 -32.98535,-8.361664 L 93.939962,25.002138 74.838463,40.500552 Z"
       id="path3" />
    <path
       id="path2"
       style="display:inline;fill:#ffcc00;stroke-width:1.33333"
       d="M 286.99935 57.379838 L 286.19466 62.414994 C 283.21104 81.073534 243.44937 103.09123 193.99935 113.46968 C 182.20564 115.94492 175.0239 116.56095 157.33333 116.60835 C 131.26593 116.67825 124.81019 115.26605 116.93685 107.77632 C 113.98237 104.96579 111.43263 102.66695 111.26888 102.66695 C 110.01556 102.66695 106.66931 112.57748 107.27669 114.49117 C 108.75504 119.14903 114.75185 123.17394 123.68099 125.50288 C 135.32425 128.53975 160.81225 128.71852 179.82943 125.89742 C 224.33506 119.29523 268.47186 101.85833 287.56966 83.332963 C 299.13409 72.115169 300.06794 65.099123 290.72982 59.582963 L 286.99935 57.379838 z M 300.56576 81.332963 C 300.20991 81.332963 298.07823 83.427971 295.82943 85.989213 C 285.82174 97.387347 259.90228 111.33763 231.14779 120.79976 C 202.65957 130.17426 184.63174 133.42701 156.66732 134.24117 C 133.14049 134.92612 127.98822 134.4141 113.7181 129.96773 C 110.9479 129.10458 110.84425 129.30726 111.99544 133.32124 C 112.66915 135.6703 113.99718 138.53056 114.94466 139.67867 C 117.3377 142.57843 127.11774 146.73121 134.49349 147.97749 C 143.7307 149.53832 165.92511 149.51624 178.70247 147.93453 C 223.92275 142.33655 271.43604 124.50505 292.55013 105.20796 C 300.83733 97.633929 303.33118 92.62191 302.0931 86.022416 C 301.6093 83.44353 300.9216 81.332963 300.56576 81.332963 z M 289.01107 118.66109 L 270.17318 127.9482 C 233.42588 146.06339 192.69637 156.00093 155.19662 156.00093 L 140.32357 156.00093 L 131.34505 165.51656 C 114.12848 183.76703 101.05874 207.61814 93.815756 234.00093 C 90.404085 246.42804 90.155846 249.1001 90.159506 273.33296 C 90.163106 297.24925 90.446038 300.3795 93.68685 312.39156 C 101.02318 339.58369 114.46862 363.52371 133.59505 383.44624 C 147.9268 398.37453 158.76068 406.45096 176.39388 415.35249 C 206.0746 430.33586 235.60191 435.76169 266.70247 431.9482 C 293.71723 428.63567 322.39266 417.31138 343.40169 401.65913 C 363.34306 386.80237 386.89984 358.0877 392.74544 341.50874 C 393.94283 338.11283 396.02268 332.93426 397.36849 330.00093 C 398.71432 327.06759 401.49729 318.36692 403.55208 310.66695 C 407.02244 297.66248 407.28353 294.91357 407.22396 272.00093 C 407.16626 249.79224 406.81698 246.07142 403.72787 234.66695 C 389.25198 181.22458 350.11008 138.96606 299.50521 122.14742 L 289.01107 118.66109 z M 248.66732 150.27242 C 271.80937 150.27242 281.94029 152.40724 300.83724 161.26265 C 315.88393 168.31374 326.48406 176.03937 338.66732 188.83296 C 369.61053 221.3264 380.34596 267.27829 367.13021 310.66695 C 365.90171 314.70026 364.44798 318.59963 363.89974 319.33296 C 363.35152 320.06629 360.47953 325.52316 357.51888 331.45992 C 342.56371 361.44839 315.20564 383.25385 279.81771 393.3857 C 270.23566 396.12908 240.45478 398.08937 231.99935 396.53413 C 197.26691 390.14567 172.17652 375.90373 152.56185 351.44429 C 133.82383 328.07803 125.33333 303.93931 125.33333 274.03023 C 125.33333 256.24253 127.61871 242.95085 133.10677 228.81734 C 144.5196 199.42565 165.3372 176.77812 193.99935 162.5732 C 214.0712 152.62562 224.52758 150.27242 248.66732 150.27242 z M 294.03841 378.81538 C 292.46774 379.57265 291.21732 380.27955 290.66732 380.75288 C 291.21732 380.27955 292.46774 379.57265 294.03841 378.81538 z "
       transform="translate(-81.333334,-32.2939)" />
    <path
       style="fill:#000000;stroke-width:1.33333"
       d="M 148.66667,408.21645 C 106.64993,401.77227 76.052616,386.77769 48.600406,359.17777 16.238647,326.64191 0,287.16884 0,241.03943 c 0,-41.44607 13.563238,-77.9926 40.907066,-110.22528 6.13588,-7.23292 6.84588,-8.6044 4.81208,-9.29533 -9.14524,-3.10688 -16.6074,-7.4466 -18.68414,-10.86603 -3.78346,-6.2296 -8.877421,-28.48166 -7.81566,-34.14132 0.50893,-2.71283 3.40695,-7.94578 6.5539,-11.834334 3.10285,-3.834071 7.22467,-9.695041 9.1596,-13.02438 6.9906,-12.028364 25.19733,-27.341766 43.32426,-36.439394 14.95458,-7.50546 36.361584,-13.218606 55.742904,-14.876777 20.75978,-1.776107 48.21917,3.659633 60.61009,11.998106 3.34161,2.248742 8.67351,4.866955 11.84864,5.81825 3.17515,0.951296 7.89079,3.670445 10.4792,6.042554 4.00985,3.674752 5.17147,6.177149 7.85047,16.911765 1.72933,6.929362 3.15714,14.698839 3.17293,17.265505 0.0305,4.972658 -3.39299,11.687645 -9.00007,17.652755 -1.88844,2.00902 -3.17726,3.84943 -2.86406,4.0898 0.31321,0.24038 5.84656,2.44295 12.29633,4.89462 29.44576,11.19284 57.24143,32.89517 75.80726,59.1889 20.83717,29.51051 32.86993,69.34502 31.08097,102.89376 -0.66127,12.40095 -3.50225,30.23386 -6.4702,40.6135 -2.45795,8.59602 -6.03289,17.34792 -12.03265,29.45738 -6.80136,13.72735 -8.4285,16.21375 -20.51883,31.35449 -3.15696,3.95347 -5.27324,7.18812 -4.70285,7.18812 1.07993,0 -5.68442,6.34274 -9.24275,8.66667 -1.12287,0.73333 -7.23032,5.29144 -13.57213,10.12912 -19.37443,14.77924 -41.6013,25.09905 -66.07569,30.67857 -11.08204,2.52642 -44.91882,4.42879 -54,3.036 z m 36.70164,-8.56241 c 27.01482,-3.31253 55.69163,-14.63711 76.70072,-30.28939 19.94143,-14.85682 43.49655,-43.57178 49.34218,-60.15077 1.19739,-3.39594 3.2782,-8.57445 4.62401,-11.50778 1.34583,-2.93334 4.12816,-11.63334 6.18298,-19.33334 3.47036,-13.0045 3.73145,-15.75396 3.67188,-38.66666 -0.0577,-22.20875 -0.406,-25.92884 -3.49514,-37.33334 C 307.91902,148.93024 268.77745,106.67307 218.17243,89.85437 L 207.67821,86.36658 188.8391,95.65363 C 152.09171,113.76888 111.36302,123.7061 73.863146,123.7061 h -14.87346 l -8.97768,9.5168 c -17.21663,18.25053 -30.28659,42.10032 -37.529599,68.4832 -3.41168,12.42714 -3.660192,15.10038 -3.656532,39.33333 0.0036,23.91635 0.286275,27.04652 3.527096,39.05861 7.336355,27.19222 20.782005,51.13101 39.908495,71.0536 14.33178,14.92832 25.16548,23.00484 42.79874,31.9064 29.680814,14.9834 59.207424,20.40952 90.308104,16.596 z m -34.70164,-35.4134 c -34.73253,-6.38849 -59.823684,-20.63047 -79.438414,-45.08997 -18.73808,-23.36632 -27.22825,-47.50528 -27.22825,-77.41445 0,-17.78776 2.28513,-31.07923 7.77322,-45.2128 11.41286,-29.39178 32.2312,-52.03956 60.893444,-66.24454 20.07191,-9.94761 30.52687,-12.29997 54.66667,-12.29997 23.14211,0 33.27272,2.134 52.16973,10.98944 15.04672,7.05112 25.64698,14.77643 37.83027,27.57008 30.9433,32.49353 41.67854,78.44555 28.46276,121.83433 -1.2285,4.03334 -2.6822,7.93334 -3.23044,8.66667 -0.54822,0.73333 -3.41912,6.19068 -6.37977,12.12744 -14.95523,29.98856 -42.31435,51.79208 -77.7024,61.92396 -9.58208,2.74341 -39.36136,4.70505 -47.81682,3.14981 z m 46.66667,-11.21349 c 5.5,-1.56584 10.9,-3.62152 12,-4.5682 1.1,-0.94668 5,-2.82628 8.66667,-4.1769 14.06325,-5.18021 24.80169,-13.06337 36.52889,-26.81613 6.14061,-7.20124 12.05575,-15.19316 13.14474,-17.75982 1.08898,-2.56667 3.48077,-8.26667 5.31509,-12.66667 1.83431,-4.4 3.83276,-8.99465 4.44103,-10.21036 3.3465,-6.68852 5.5121,-24.68629 4.84548,-40.26971 -0.93223,-21.79228 -5.45528,-37.75793 -15.28931,-53.9688 -16.9079,-27.87177 -41.41454,-45.9764 -73.65259,-54.41186 -12.52799,-3.2781 -38.88791,-3.2291 -52,0.0967 -35.72799,9.06206 -62.420244,30.474 -77.987084,62.55951 -8.12773,16.75244 -11.32521,30.95801 -11.33691,50.36695 -0.0342,56.77765 40.00976,104.27455 96.514184,114.47723 11.18032,2.01878 37.40964,0.5937 48.80981,-2.65189 z M 97.368306,115.64076 c 45.220324,-5.59798 92.734644,-23.42994 113.848754,-42.72705 8.28721,-7.574041 10.77983,-12.58589 9.54175,-19.185391 -0.4838,-2.578888 -1.17078,-4.688887 -1.52662,-4.688887 -0.35585,0 -2.48692,2.095563 -4.73572,4.656807 -10.0077,11.398146 -35.9282,25.347521 -64.68272,34.809661 -28.48825,9.37451 -46.51596,12.62818 -74.480414,13.44234 -23.52685,0.68496 -28.67747,0.17239 -42.9476,-4.27399 -2.7702,-0.86315 -2.87387,-0.66139 -1.72268,3.3526 0.67371,2.34906 2.00012,5.21038 2.9476,6.35849 2.39304,2.89977 12.17443,7.05118 19.55019,8.29746 9.23722,1.56083 31.43008,1.53972 44.20746,-0.042 z m 1.12724,-22.03688 C 143.00123,87.00169 187.13785,69.56482 206.23567,51.039432 217.80011,39.821627 218.7337,32.804454 209.39557,27.288288 l -3.72879,-2.202654 -0.80509,5.034769 c -2.98363,18.658559 -42.74495,40.677787 -92.19502,51.056247 -11.79372,2.47524 -18.976084,3.08976 -36.666664,3.13716 -26.06743,0.0699 -32.52225,-1.34125 -40.3956,-8.83099 -2.95448,-2.81053 -5.50576,-5.11005 -5.66951,-5.11005 -1.25332,0 -4.59827,9.90988 -3.99089,11.82357 1.47835,4.65787 7.47484,8.68347 16.40399,11.01242 11.64327,3.03687 37.13035,3.21623 56.14755,0.39512 z m 1.504464,-18.11122 c 33.44692,-4.58734 73.17713,-20.261665 88.65616,-34.976542 8.79288,-8.358792 10.29517,-12.90674 5.84024,-17.68026 C 182.57578,10.062741 144.22945,4.647998 113.86357,11.449991 89.861206,16.826549 69.499806,26.870385 54.472606,40.746267 39.349176,54.711001 34.863746,65.854504 42.081016,71.53161 c 7.83697,6.16456 30.53487,7.71686 57.918994,3.96105 z"
       id="path1" />
  </g>
</svg>
